<?xml version="1.0" encoding="UTF-8" standalone="no"?>
<svg
   viewBox="0 0 512 512"
   version="1.1"
   id="svg1"
   xmlns="http://www.w3.org/2000/svg"
>
  <defs
     id="defs1" />
  <!--!FontAwesome Free 6.7.2 by @fontawesome - https://fontawesome.com License -https://fontawesome.com/license/free Copyright 2025 Fonticons, Inc.-->
  <path
     d="M 256,47.68 C 140.92,47.68 47.68,140.92 47.68,256 47.68,371.08 140.92,464.32 256,464.32 371.08,464.32 464.32,371.08 464.32,256 464.32,140.92 371.08,47.68 256,47.68 Z m 77.7,262.92 v 0 l -16.8,21 a 13.44,13.44 0 0 1 -18.9,2.1 v 0 l -56.28,-41.748 a 33.6,33.6 0 0 1 -12.6,-26.208 V 135.04 a 13.44,13.44 0 0 1 13.44,-13.44 h 26.88 a 13.44,13.44 0 0 1 13.44,13.44 V 256 l 48.72,35.7 a 13.44,13.44 0 0 1 2.1,18.9 z"
     id="path1"
     style="stroke-width:0.84"
     fill="#616161"
     class="jp-icon3" />
</svg>
