<!-- Uploaded to: SVG Repo, www.svgrepo.com, Generator: SVG Repo Mixer Tools -->
<svg
  width="24px"
  height="24px"
  viewBox="0 0 100 100"
  xmlns="http://www.w3.org/2000/svg"
  class="iconify iconify--gis">
  <g class="jp-icon2 jp-icon-selectable" fill="#e2e2e2">
    <path d="M13.996 0a2.5 2.5 0 0 0-2.5 2.5V70H0v22h11.496v5.5a2.5 2.5 0 0 0 2.5 2.5h72a2.5 2.5 0 0 0 2.5-2.5V21.625c.027-1.113.004-1.777-.732-2.59L69.46.732A2.5 2.5 0 0 0 67.662 0H13.996zm2.5 5h48.902l1.252 14.568a2.5 2.5 0 0 0 2.278 2.278l14.568 1.252V95h-67v-3H80V70H16.496V5zm54.275 4.115l8.61 8.61l-7.928-.682l-.682-7.928zM10.48 73c1.37 0 2.439.379 3.207 1.137c.772.751 1.269 1.793 1.49 3.125l-2.213.543c-.156-.712-.45-1.271-.881-1.68c-.426-.415-.961-.623-1.603-.623c-.974 0-1.748.406-2.325 1.217c-.572.81-.86 2.012-.86 3.607c0 1.72.292 3.014.874 3.877c.582.857 1.346 1.285 2.289 1.285c.467 0 .932-.118 1.398-.355a4.72 4.72 0 0 0 1.213-.881v-1.838h-2.55v-2.443h4.8v5.775c-.466.593-1.143 1.118-2.03 1.572c-.884.449-1.78.672-2.688.672c-1.154 0-2.16-.316-3.018-.949c-.858-.64-1.504-1.549-1.936-2.728C5.215 83.126 5 81.835 5 80.445c0-1.51.241-2.85.723-4.023c.481-1.173 1.187-2.073 2.115-2.7c.707-.48 1.587-.722 2.64-.722zm37.33 0c1.384 0 2.425.4 3.123 1.197c.702.798 1.07 1.862 1.105 3.194l-2.226.129c-.096-.745-.302-1.281-.618-1.604c-.31-.33-.78-.494-1.408-.494c-.647 0-1.153.176-1.52.525c-.235.224-.353.523-.353.899c0 .342.11.637.33.88c.281.31.963.633 2.047.97c1.084.336 1.886.686 2.402 1.048c.522.356.928.847 1.22 1.473c.295.62.443 1.388.443 2.304c0 .831-.175 1.607-.526 2.333c-.351.725-.848 1.267-1.49 1.623c-.642.349-1.444.523-2.402.523c-1.395 0-2.466-.422-3.213-1.266c-.748-.85-1.195-2.085-1.34-3.707l2.168-.277c.13.956.392 1.657.789 2.105c.401.449.942.672 1.619.672c.717 0 1.256-.196 1.617-.591c.366-.403.551-.87.551-1.405c0-.343-.079-.634-.234-.87c-.15-.245-.416-.456-.797-.634c-.261-.118-.855-.33-1.783-.632c-1.195-.39-2.033-.867-2.514-1.434c-.678-.798-1.018-1.77-1.018-2.916a4.6 4.6 0 0 1 .475-2.066a3.361 3.361 0 0 1 1.377-1.475c.602-.336 1.328-.504 2.176-.504zm11.318 0c1.626 0 2.925.663 3.898 1.988c.979 1.325 1.47 3.168 1.47 5.528c0 2.34-.486 4.17-1.454 5.496c-.968 1.318-2.262 1.978-3.883 1.978c-1.64 0-2.946-.657-3.914-1.969c-.968-1.318-1.453-3.13-1.453-5.437c0-1.477.168-2.717.504-3.719c.25-.738.592-1.4 1.023-1.986c.437-.587.915-1.021 1.432-1.305c.687-.382 1.479-.574 2.377-.574zm-19.777.248h2.218v9.176c0 1.2-.08 2.121-.24 2.767c-.216.844-.607 1.523-1.174 2.038c-.567.507-1.314.761-2.242.761c-1.089 0-1.927-.4-2.514-1.197c-.587-.804-.883-1.98-.888-3.53l2.1-.316c.024.83.118 1.417.279 1.76c.24.52.606.781 1.097.781c.497 0 .85-.183 1.055-.552c.206-.376.309-1.151.309-2.325v-9.363zm26.898 0h2.166l4.516 9.68v-9.68H75v14.494h-2.234l-4.45-9.451v9.451h-2.068V73.248zm-7.098 2.254c-.918 0-1.658.415-2.22 1.246c-.562.824-.842 2.069-.842 3.736c0 1.642.288 2.888.865 3.739c.577.843 1.31 1.265 2.197 1.265c.888 0 1.615-.418 2.182-1.256c.572-.843.86-2.106.86-3.787c0-1.66-.28-2.9-.837-3.716c-.551-.818-1.286-1.227-2.205-1.227zm-38.752 1.502c1.19 0 2.128.518 2.815 1.553c.687 1.028 1.016 2.607.986 4.736h-5.3c.015.824.186 1.466.512 1.928c.326.455.732.683 1.219.683c.331 0 .61-.12.836-.357c.226-.237.396-.62.512-1.147l2.107.465c-.271 1.015-.7 1.79-1.287 2.324c-.582.528-1.312.791-2.19.791c-1.39 0-2.418-.595-3.086-1.789c-.526-.955-.79-2.162-.79-3.619c0-1.74.346-3.102 1.038-4.084c.693-.989 1.569-1.484 2.627-1.484zm9.159 0c1.209 0 2.202.518 2.974 1.553c.773 1.028 1.158 2.33 1.158 3.906c0 1.589-.39 2.907-1.173 3.955c-.778 1.041-1.76 1.562-2.944 1.562c-.732 0-1.432-.217-2.1-.652c-.662-.435-1.165-1.07-1.511-1.908c-.346-.844-.52-1.87-.52-3.076c0-.923.174-1.816.52-2.68c.346-.863.835-1.522 1.467-1.977a3.58 3.58 0 0 1 2.129-.683zm-9.032 2.127c-.461 0-.841.22-1.142.662c-.301.442-.45 1.04-.445 1.799H22.1c-.015-.804-.174-1.413-.475-1.828c-.301-.422-.668-.633-1.1-.633zm9.04.139c-.552 0-1.017.276-1.393.83c-.376.553-.565 1.35-.565 2.392c0 1.042.189 1.839.565 2.393c.376.553.84.832 1.392.832c.552 0 1.014-.279 1.385-.832c.377-.554.565-1.358.565-2.412c0-1.029-.188-1.82-.565-2.373c-.371-.554-.833-.83-1.385-.83z"></path>
    <path d="M51.252 18v10.11h8.852a25.56 25.56 0 0 0-1.707-3.881c-1.985-3.606-4.507-5.78-7.145-6.229zm-2.504.1c-2.469.613-4.813 2.735-6.682 6.13a25.56 25.56 0 0 0-1.706 3.881h8.388zm-5.769.678a22.547 22.547 0 0 0-12.005 9.333h6.739c.594-1.851 1.318-3.562 2.16-5.089c.897-1.63 1.942-3.067 3.106-4.244zm14.729.231c1.074 1.134 2.044 2.488 2.883 4.013c.841 1.527 1.564 3.238 2.157 5.089h6.278a22.56 22.56 0 0 0-11.318-9.102zM29.595 30.615a22.435 22.435 0 0 0-2.095 8.329h8.408c.097-2.941.48-5.744 1.103-8.329zm10.004 0c-.662 2.542-1.078 5.357-1.184 8.329h10.333v-8.329zm11.653 0v8.329h10.797c-.106-2.972-.523-5.787-1.184-8.329zm12.197 0a41.505 41.505 0 0 1 1.1 8.329H72.5a22.435 22.435 0 0 0-2.095-8.329zM27.5 41.447a22.435 22.435 0 0 0 2.095 8.329h7.298c-.588-2.593-.934-5.396-.999-8.329zm10.898 0c.07 2.962.452 5.774 1.075 8.329h9.275v-8.329zm12.854 0v8.329h9.738c.624-2.555 1.005-5.367 1.075-8.329zm13.31 0c-.065 2.932-.409 5.736-.995 8.329h6.838a22.435 22.435 0 0 0 2.095-8.329zM30.973 52.28a22.565 22.565 0 0 0 11.33 9.105a20.107 20.107 0 0 1-2.432-3.514c-.917-1.666-1.697-3.546-2.319-5.591zm9.212 0c.532 1.61 1.165 3.084 1.88 4.383c1.753 3.182 3.923 5.246 6.222 5.997c.154.01.306.03.46.03V52.275zm11.066 0v10.415c.357-.02.713-.04 1.065-.08c2.247-.789 4.364-2.834 6.08-5.951c.716-1.299 1.349-2.773 1.88-4.383zm11.656 0c-.62 2.045-1.4 3.926-2.317 5.591a20.4 20.4 0 0 1-2.197 3.243a22.568 22.568 0 0 0 10.632-8.834z"></path>
  </g>
</svg>
