<?xml version="1.0" encoding="UTF-8" standalone="no"?>
<svg
    viewBox="0 0 192 512"
    version="1.1"
    id="svg1"
    xmlns="http://www.w3.org/2000/svg"
>
    <defs
        id="defs1" />
    <!--!Font
    Awesome Free 6.7.2 by @fontawesome - https://fontawesome.com License -
    https://fontawesome.com/license/free Copyright 2025 Fonticons, Inc.-->
    <path
        d="m 35.2,390.56 h 16 V 275.04 h -16 c -8.8,0 -16,-7.2 -16,-16 V 220.8 c 0,-8.8 7.2,-16 16,-16 h 89.6 c 8.8,0 16,7.2 16,16 v 169.76 h 16 c 8.8,0 16,7.2 16,16 v 38.24 c 0,8.8 -7.2,16 -16,16 H 35.2 c -8.8,0 -16,-7.2 -16,-16 v -38.24 c 0,-8.8 7.2,-16 16,-16 z M 96,51.2 c -31.84,0 -57.6,25.76 -57.6,57.6 0,31.84 25.76,57.6 57.6,57.6 31.84,0 57.6,-25.76 57.6,-57.6 0,-31.84 -25.76,-57.6 -57.6,-57.6 z"
        id="path1"
        style="stroke-width:0.8"
        fill="#616161"
        class="jp-icon3"
    />
</svg>
