<?xml version="1.0" encoding="UTF-8"?>
<!-- Created with Inkscape (http://www.inkscape.org/) -->
<svg width="512" height="512" version="1.1" viewBox="0 0 512 512" xml:space="preserve" xmlns="http://www.w3.org/2000/svg"><defs><mask id="mask78" maskUnits="userSpaceOnUse"><g transform="matrix(1.0767 0 0 1.0767 -12.485 -18.906)" style="paint-order:normal"><path d="m251.56 484.04c10.453-0.66464 20.739-6.0855 30.805-16.401 10.77-11.037 20.923-27.584 29.487-48.334 7.5035-18.18 13.781-39.586 18.487-63.278-26.117 2.1491-53.281 3.2876-80.975 3.2876-27.722 0-54.854-1.2016-80.993-3.3668 4.7076 23.724 10.993 45.156 18.505 63.357 8.5646 20.751 18.717 37.297 29.487 48.334 10.77 11.037 21.792 16.471 33.001 16.471 0.73263 0 1.4648-0.0236 2.1958-0.0701z" fill="#fff" stroke-width="0" style="paint-order:normal"/><path d="m468.12 331.81c-35.258 10.647-77.632 18.398-123.73 22.915-4.9228 25.979-11.713 49.562-20.043 69.743-9.0274 21.872-19.821 39.822-32.311 52.622-2.6437 2.7092-5.3844 5.1766-8.2036 7.4077a232.15 232.15 0 0 0 184.28-152.69z" fill="#fff" stroke-width="0" style="paint-order:normal"/><path d="m30.643 331.77a232.15 232.15 0 0 0 184.33 152.79c-2.8513-2.2495-5.6231-4.7396-8.2952-7.4778-12.49-12.8-23.284-30.75-32.311-52.622-8.3284-20.178-15.129-43.744-20.052-69.719-46.067-4.5298-88.399-12.322-123.67-22.973z" fill="#fff" stroke-width="0" style="paint-order:normal"/><path d="m151.6 171.87c-48.188 5.0669-91.71 13.724-126.18 25.017a232.15 232.15 0 0 0-8.2097 58.45 232.15 232.15 0 0 0 7.5602 58.322c34.698 11.468 78.487 20.139 126.84 25.187-4.0167-26.037-6.2183-54.142-6.2183-83.509 0-29.352 2.1996-57.441 6.2122-83.467z" fill="#fff" stroke-width="0" style="paint-order:normal"/><path d="m333.19 170.49c-26.951-2.3825-55.121-3.6718-83.833-3.6718-28.798 0-56.918 1.3698-83.842 3.7755-4.24 26.22-6.6087 54.806-6.6087 84.742 0 29.949 2.3712 58.546 6.6148 84.775 26.967 2.3909 55.095 3.742 83.836 3.742 28.717 0 56.884-1.2907 83.827-3.6718 4.2504-26.247 6.6239-54.871 6.6239-84.845 0-29.972-2.368-58.6-6.6178-84.845z" fill="#fff" stroke-width="0" style="paint-order:normal"/><path d="m347.12 171.85c4.0148 26.032 6.2153 54.13 6.2153 83.491 0 29.357-2.1923 57.459-6.2061 83.488 48.387-5.0494 92.199-13.714 126.88-25.175a232.15 232.15 0 0 0 7.5053-58.313 232.15 232.15 0 0 0-7.798-58.392c-34.664-11.434-78.367-20.065-126.6-25.099z" fill="#fff" stroke-width="0" style="paint-order:normal"/><path d="m214.96 26.13a232.15 232.15 0 0 0-184.19 152.67c35.169-10.625 77.423-18.397 123.55-22.906 4.9221-25.961 11.724-49.51 20.049-69.679 9.0274-21.872 19.821-39.819 32.311-52.619 2.6662-2.7322 5.4322-5.2169 8.2768-7.4626z" fill="#fff" stroke-width="0" style="paint-order:normal"/><path d="m262.17 28.975c-4.2405-1.6079-8.5126-2.4062-12.812-2.4062-11.208 0-22.23 5.4311-33.001 16.468-10.77 11.037-20.923 27.584-29.487 48.334-7.5086 18.192-13.793 39.613-18.499 63.324 26.09-2.1458 53.21-3.3333 80.987-3.3333 27.688 1e-5 54.853 1.1439 80.975 3.2998-4.706-23.695-10.983-45.108-18.487-63.29-8.5646-20.751-18.717-37.297-29.487-48.334-6.6392-6.8038-13.374-11.478-20.189-14.062z" fill="#fff" stroke-width="0" style="paint-order:normal"/><path d="m283.7 26.099c2.8654 2.2576 5.6564 4.742 8.3409 7.4931 12.49 12.8 23.284 30.747 32.311 52.619 8.3323 20.188 15.132 43.772 20.055 69.762 46.268 4.5479 88.804 12.357 124.17 23.083a232.15 232.15 0 0 0-184.88-152.96z" fill="#fff" stroke-width="0" style="paint-order:normal"/></g></mask></defs><g><g transform="matrix(1.0767 0 0 1.0767 -12.485 -18.906)" fill="#2d93ad" style="paint-order:normal"><path d="m251.56 484.04c10.453-0.66464 20.739-6.0855 30.805-16.401 10.77-11.037 20.923-27.584 29.487-48.334 7.5035-18.18 13.781-39.586 18.487-63.278-26.117 2.1491-53.281 3.2876-80.975 3.2876-27.722 0-54.854-1.2016-80.993-3.3668 4.7076 23.724 10.993 45.156 18.505 63.357 8.5646 20.751 18.717 37.297 29.487 48.334 10.77 11.037 21.792 16.471 33.001 16.471 0.73263 0 1.4648-0.0236 2.1958-0.0701z" style="paint-order:normal"/><path d="m468.12 331.81c-35.258 10.647-77.632 18.398-123.73 22.915-4.9228 25.979-11.713 49.562-20.043 69.743-9.0274 21.872-19.821 39.822-32.311 52.622-2.6437 2.7092-5.3844 5.1766-8.2036 7.4077a232.15 232.15 0 0 0 184.28-152.69z" style="paint-order:normal"/><path d="m30.643 331.77a232.15 232.15 0 0 0 184.33 152.79c-2.8513-2.2495-5.6231-4.7396-8.2952-7.4778-12.49-12.8-23.284-30.75-32.311-52.622-8.3284-20.178-15.129-43.744-20.052-69.719-46.067-4.5298-88.399-12.322-123.67-22.973z" style="paint-order:normal"/><path d="m151.6 171.87c-48.188 5.0669-91.71 13.724-126.18 25.017a232.15 232.15 0 0 0-8.2097 58.45 232.15 232.15 0 0 0 7.5602 58.322c34.698 11.468 78.487 20.139 126.84 25.187-4.0167-26.037-6.2183-54.142-6.2183-83.509 0-29.352 2.1996-57.441 6.2122-83.467z" style="paint-order:normal"/><path d="m333.19 170.49c-26.951-2.3825-55.121-3.6718-83.833-3.6718-28.798 0-56.918 1.3698-83.842 3.7755-4.24 26.22-6.6087 54.806-6.6087 84.742 0 29.949 2.3712 58.546 6.6148 84.775 26.967 2.3909 55.095 3.742 83.836 3.742 28.717 0 56.884-1.2907 83.827-3.6718 4.2504-26.247 6.6239-54.871 6.6239-84.845 0-29.972-2.368-58.6-6.6178-84.845z" style="paint-order:normal"/><path d="m347.12 171.85c4.0148 26.032 6.2153 54.13 6.2153 83.491 0 29.357-2.1923 57.459-6.2061 83.488 48.387-5.0494 92.199-13.714 126.88-25.175a232.15 232.15 0 0 0 7.5053-58.313 232.15 232.15 0 0 0-7.798-58.392c-34.664-11.434-78.367-20.065-126.6-25.099z" style="paint-order:normal"/><path d="m214.96 26.13a232.15 232.15 0 0 0-184.19 152.67c35.169-10.625 77.423-18.397 123.55-22.906 4.9221-25.961 11.724-49.51 20.049-69.679 9.0274-21.872 19.821-39.819 32.311-52.619 2.6662-2.7322 5.4322-5.2169 8.2768-7.4626z" style="paint-order:normal"/><path d="m262.17 28.975c-4.2405-1.6079-8.5126-2.4062-12.812-2.4062-11.208 0-22.23 5.4311-33.001 16.468-10.77 11.037-20.923 27.584-29.487 48.334-7.5086 18.192-13.793 39.613-18.499 63.324 26.09-2.1458 53.21-3.3333 80.987-3.3333 27.688 1e-5 54.853 1.1439 80.975 3.2998-4.706-23.695-10.983-45.108-18.487-63.29-8.5646-20.751-18.717-37.297-29.487-48.334-6.6392-6.8038-13.374-11.478-20.189-14.062z" style="paint-order:normal"/><path d="m283.7 26.099c2.8654 2.2576 5.6564 4.742 8.3409 7.4931 12.49 12.8 23.284 30.747 32.311 52.619 8.3323 20.188 15.132 43.772 20.055 69.762 46.268 4.5479 88.804 12.357 124.17 23.083a232.15 232.15 0 0 0-184.88-152.96z" style="paint-order:normal"/></g><g mask="url(#mask78)"><g fill="#87d68d"><path transform="translate(70.625 11.06)" d="m239.34 363.1c-0.76288 1.2394-0.53225 2.8479-1.1892 4.1217-0.66214 1.284-0.8507 2.8156-1.5508 4.0981-0.64478 1.1811-1.5009 2.7822-0.72787 3.8813 0.60727 0.86343 1.4166 1.0492 1.5951 2.5904 0.14306 1.2351-1.1819 2.5942 0.23503 3.5782 1.2607 0.87551 2.3034-0.46482 3.379-0.89029 0.65845-0.26044 2.7642-0.60327 2.2882-0.6074-0.72407-6e-3 1.2978-0.53601 1.7441-0.71116 1.4095-0.55311 1.6483 0.89908 2.3404 1.8246 0.66088 0.88389 1.9598 1.4168 2.2298 2.5272 0.40713 1.6742 1.7537 3.0033 1.9084 4.7372 0.14374 1.6114 1.7601 1.117 3.1003 1.202 1.4771 0.0936 2.3135-1.0009 2.4195-2.5261 0.0997-1.4345-0.2353-2.7754-0.12161-4.2454 0.13626-1.7617-0.80359-3.3518-1.767-4.7492-0.86239-1.2509-1.0614-3.1119-0.0193-4.1888 1.0357-1.0704 0.40366-2.706 1.2681-3.7836 0.81214-1.0124 1.101-2.2938 1.1964-3.6266 0.0926-1.294 0.9708-2.9692-0.0369-3.9689-1.3987-1.3876-3.5354-1.4288-5.368-1.7109-1.5434-0.23762 1.3236 0.0787-0.16067 0.10717-1.3409 0.0257-2.6144-0.58297-3.9634-0.25019-1.2407 0.30605-2.5458 0.0887-3.7657 0.43002-1.4319 0.4006-2.8058 0.8634-4.1094 1.6193-0.30895 0.17915-0.61591 0.3617-0.92461 0.54127z" style="paint-order:normal"/><path transform="matrix(0 1 -1.1064 0 730.82 158.68)" d="m270 363.03c-1.7592 1.4891-1.9061 4.0278-1.333 5.9665 0.38829 1.3136 1.313 2.7406 2.7591 2.9795 1.5082 0.24923 2.8119 0.92946 4.1922 1.4821 1.3248 0.53047 2.678 0.69359 4.138 0.72103 1.4498 0.0272 2.7827 1.9933 0.49533 2.1502-1.6835 0.11547-4.2764-1.913-4.9902-0.38479-0.93222 1.9958-2.2597 1.3004-4.2218 1.3872-1.7216 0.0762-3.6891 2.0229-1.4549 3.0556 1.4074 0.65052 2.3822 3.3674 1.6346 3.849-1.3866 0.89336-2.1289 1.8333-3.8235 2.6894-1.1123 0.56191-3.068 1.1155-2.5261 2.7474 0.54879 1.6526-0.99273 2.9639-2.0533 4.0534-1.26 1.2944-3.1056 2.5856-4.922 2.5756-2.7912-0.0155-5.5868-0.16095-8.3338-0.75522-1.4695-0.31791-3.0216-0.87793-3.9892-2.2663-0.66305-0.95132-0.39747-2.2996-0.64319-3.6966-0.28808-1.6379-0.97307-2.8652-1.5748-4.382-0.49457-1.2467-1.3102-1.3167-1.9545 0.28626-0.55988 1.393-1.1268 3.3748-0.24312 4.6503 0.98367 1.4199-1.0549 4.0763 0.38916 4.8548 0.97955 0.5281 1.7306 2.7942 0.0752 3.3339-1.4888 0.48542-3.09-1e-3 -4.6012 0.32893-1.4114 0.30822-2.8189 1.2741-3.2564 3.1019-0.36768 1.5359-1.0245 3.8426-2.6433 4.2727-1.5992 0.42489-2.6553 1.8981-3.6407 3.1356-0.81434 1.0227-0.99834 1.9346-1.9647 2.7986-0.85992 0.76877-2.5492 2.5964-3.484 1.6064-0.77515-0.82081-3.5478-0.67633-3.4776-0.4853 0.31806 0.86518 0.81479 1.5174-0.57566 2.0536-1.3563 0.52309-4.0551-1.8605-3.8158-0.81498 0.30359 1.3266 1.7229 1.9824 1.879 3.1602 0.24788 1.8708 1.2824 3.314 2.2319 4.8703 0.72452 1.1875 0.98766 2.532 0.84999 3.9297-0.10003 1.0156 0.40617 3.4669-1.4934 2.3361-1.462-0.87029-3.665-0.53893-4.811 0.52866-1.0423 0.97105-2.8392 0.94985-3.9765 0.23399-0.88154-0.55487-1.6664-2.532-2.6724-0.71658-0.47692 0.86067-1.7392 1.9097-1.9752 2.9515-0.34837 1.5376-2.6512 2.6586-1.7092 4.4658 0.79303 1.5213-0.0575 3.0944-0.0507 4.6715 6e-3 1.4866 0.19135 2.9548 0.43988 4.4386 0.29155 1.7406 2.0154 2.4529 3.2583 3.3954 1.4427 1.094 2.3469 3.0801 4.1375 3.4434 1.04 0.21098 3.4017 1.0304 3.3926 0.26153-0.0203-1.7164 1.6841-1.9515 3.1847-2.2987 1.4051-0.32507 1.0263-2.2855 2.1982-2.4138 0.98287-0.10762 0.91316-0.39918 2.4554-0.77938 1.4878-0.36676 1.9895-2.306 1.3522-3.59-0.82455-1.6612 1.5842-1.7854 2.4356-2.6476 1.2158-1.2312 3.4854-0.50553 3.7965-2.9022 0.25043-1.929 3.6531 0.41582 2.7229-2.1847-0.50687-1.4171-1.4071-4.4662 0.15358-4.5168 1.703-0.0552 3.5043-0.0208 5.2357 0.14996 1.5974 0.15756 3.6696-0.59291 3.8149-2.0256 0.16959-1.6717 1.3892-1.9849 2.7141-0.80557 1.4414 1.283 2.4206 3.1684 4.1888 3.9175 1.3421 0.56859 2.4148 1.4036 3.5377 2.4931 0.94409 0.91597 0.88357 2.6702 2.0278 3.2046 1.5397 0.71907 2.2768 2.2983 2.9258 3.7689 0.68913 1.5617 2.0086 2.9157 1.973 4.7485-0.0309 1.5867 0.65998 0.8831 1.3111-0.0598 0.92953-1.3462 2.0862-2.729 1.539-4.2873-0.47584-1.3549 0.90581-0.6734 1.5916-1.6137 1.0477-1.4366-1.3422-1.0409-1.618-2.2385-0.34223-1.4859-1.6834-2.0546-2.7284-3.1126-1.096-1.1097-3.5673-0.42325-3.9654-2.1153-0.30189-1.2833-0.96491-2.3031-1.8468-3.3826-0.82807-1.0136-3.0979-2.4854-2.0254-3.1927 1.0475-0.69074 1.9079-1.6695 2.8706-1.9289 1.2127-0.32681 2.7413 0.55537 3.5013 1.53 0.88925 1.1404 1.5976 2.3724 2.7977 3.3164 1.2868 1.0122 2.6158 2.1638 3.0851 3.7077 0.44154 1.4526 1.7941 1.2413 2.8336 1.9928 1.3057 0.9439 1.1629 2.6793 1.4846 4.2692 0.34931 1.7264 1.7283 3.1991 1.6784 4.9497-0.0557 1.9539 0.90377 3.5641 2.1408 4.8886 0.65173 0.69778 0.73681 1.5103 2.0394 0.82209 1.5203-0.80326 1.316-3.225 1.2325-4.7873-0.0724-1.3554-0.84252-4.2387 0.41797-4.0045 1.9973 0.37101 0.80921-2.4327 2.0383-2.8817 1.7516-0.6398 3.5349 1.8178 5.3525 1.5316 1.2757-0.20091 2.6825-1.3032 2.9498-2.3997 0.32982-1.3527 0.53124-2.9945 0.0236-4.3259-0.46213-1.2119-0.75535-2.84-2.1852-3.5386-1.1565-0.56507-1.8675-3.405 0.25031-2.6973 1.7151 0.57316 2.8094-0.71153 4.0508-1.8444 1.0632-0.97028 1.8081-1.5736 3.3078-2.4557 1.6605-0.97669 2.7874 1.7895 2.741 3.1426-0.0404 1.1753 0.30808 1.0366 1.68 0.85138 1.3372-0.1805 1.7421-1.2492 2.6594-2.5243 0.84973-1.1812 1.7759-2.1196 3.2416-2.5258 1.2699-0.35193 1.7873-0.70809 3.1697 0.75518 1.1884 1.2579-0.70801 1.9498-1.2113 2.3866-1.1666 1.0123-0.91893 2.368 0.79713 3.2708 1.0501 0.55245 1.7238 0.43214 2.6301 0.77029 1.2396 0.46252 2.2733 1.3037 3.126 2.3383 1.021 1.2388 2.9114 2.2862 2.8303 3.9572-0.0938 1.9323-2.273 1.5448-3.6914 1.8099-1.6525 0.30884-3.2176-0.40971-4.5457-1.2647-1.3753-0.88542-3.1052-0.65835-4.6738-0.70516-1.634-0.0487-2.1159 1.371-3.1707 2.2843-1.4652 1.2687-3.9308 0.28438-5.373 1.45-0.72543 0.58637-0.77722 2.3074-1.906 3.3758-1.3434 1.2715-3.5322 1.901-4.2035 3.6166-0.48257 1.2333-2.1272 3.8786-0.44291 4.4023 1.373 0.42685 2.6657-0.18091 4.1536 0.43777 1.5246 0.63394 3.106 0.74607 4.7145 0.91419 1.4472 0.15127 1.9749 0.72878 3.6395 1.682 1.3727 0.78614 1.3641 2.206 3.1439 2.7673 1.747 0.5509 1.1978 2.7545 1.5393 4.2158 0.4274 1.8289-0.5719 3.6082-2.112 4.6487-1.3653 0.92233-3.1537 0.83577-4.7628 0.81468-1.9565-0.0256-3.7636-0.53452-5.694-0.96627-1.4917-0.33363-3.2184-0.0719-4.6957 0.53638-1.3702 0.56425-2.9689 1.7273-4.4429 1.0727-1.819-0.80792-2.5474-2.7861-4.1313-3.8997-1.3954-0.98107-3.0315-1.6303-4.5957-2.2725-2.1013-0.86266-1.8165 2.0179-3.0342 3.2855-1.167 1.2148-2.417 2.5936-4.1238 2.9529-1.7209 0.36227-3.6255 0.80205-5.304 0.22202-1.1126-0.38447-2.132-1.2662-2.8654-1.986-1.283-1.2592-2.0478-3.2153-4.0534-3.634-1.6726-0.34918-2.0089-2.345-2.8217-3.5555-0.99473-1.4814-2.5614-2.7641-3.2775-4.4505-0.53379-1.257-1.4576-2.2659-2.9359-2.636-1.3195-0.3304-2.1301-0.16137-3.2827 0.93289-1.2795 1.2147-2.9664 1.6295-4.8348 1.6479-1.6927 0.0167-3.111-1.8672-4.6582-1.382-1.2826 0.40221-1.9592 1.0452-3.3807 1.9299-1.0383 0.64624-1.928 1.4724-2.856 2.1213-1.687 1.1794-3.2177 0.82958-4.7877 0.41201-2.0281-0.53942-4.4966 1.4011-6.1504 0.20161-1.2901-0.93572-4.0019-2.9996-4.7367-1.1056-0.59496 1.5336-1.8767 2.68-2.3392 4.2987-0.76048 2.6612-2.2961 5.1264-1.9883 8.0803 0.19868 1.9062 1.1073 3.5855 1.8389 5.352 0.98348 2.3748 3.0747 4.0065 4.7534 5.8898 1.0636 1.1932 1.4208 2.4645 2.4099 3.7828 1.2398 1.6523 2.5155 3.5285 4.3959 4.3009 1.5385 0.63201 1.467 1.3953 3.0226 2.0553 2.7224 1.155 5.2136 2.9131 7.0328 5.2698 1.3668 1.7707 3.3389 2.927 5.3707 3.6916 1.6688 0.62803 3.6506 0.83866 4.9136 2.0728 1.5724 1.5365 3.7004 2.3304 5.4974 3.6016 1.4707 1.0404 3.627 0.82138 5.3277 1.4462 1.3486 0.49547 2.6352 1.3666 4.1503 1.4239 3.955 0.14952 7.8186-1.0208 11.545-2.2096 8.6622-2.7636 17.404-5.6253 25.326-10.083 1.3206-0.74318 2.244-1.1394 3.2806-2.014 0.8716-0.7354 1.5983-1.4341 2.7733-1.8954 1.4112-0.55403 2.4356-1.6659 3.2167-2.9286 0.98923-1.5991 1.7596-3.6465 1.2061-5.3934-0.44712-1.411-0.92475-2.8938-1.3259-4.372-0.44519-1.6403-2.426-3.8976-1.1576-4.9925 1.1242-0.97034 2.7825-1.1665 4.1576-0.58242 1.5157 0.64374 2.9261 0.1441 4.2356-0.45829 1.6639-0.76544 2.0022-2.692 3.2962-3.8419 1.1666-1.0368 1.5617-2.7224 2.8655-3.576 1.5029-0.98389 2.1783-2.6252 2.7637-4.2444 0.63461-1.7551 0.50709-3.9424 2.2527-5.0453 1.9139-1.2092 3.6884-2.792 4.8014-4.725 1.1372-1.9751 1.9086-4.1257 2.5534-6.306 0.47515-1.6067 1.0106-3.192 1.4847-4.7989 0.79128-2.6818 0.52736-5.7325 1.9256-8.1549 1.1121-1.9267 2.1689-3.7973 2.911-5.9611 0.52145-1.5205 1.5981-2.7577 2.5786-4.0231 0.86335-1.1142 0.98011-2.616 1.7667-3.7308 1.812-2.5681 2.9191-5.6163 2.9658-8.8003 0.0303-2.0691-0.23366-4.1082 0.0653-6.1961 0.22375-1.5626 1.5993-2.8754 0.11452-4.5674-1.2404-1.4134-4.2699-2.2219-3.9063-4.1517 0.12251-0.65031-0.89007-0.87554-1.4025-1.1732-16.447-9.5534-31.229-22.85-49.34-28.66-1.5074-0.48356-2.3944-1.7288-4.2851-1.9332-2.7823-0.30083-9.5073-1.2276-8.2061 1.3039 0.10909 0.21225-0.53952 0.31321-0.66294 0.42603z" style="paint-order:normal"/><path transform="matrix(-1 0 0 1 513.22 -1.8379)" d="m192.41 54.2c1.5236 1.5891 1.5942 4.1028 3.0441 5.6606 1.2076 1.2974 2.1815 2.8377 3.3601 4.1181 1.1021 1.1972 1.8975 2.621 2.2277 4.1595 0.42766 1.9923 0.4545 3.9972 0.83303 6.0008 0.36694 1.9423 2.68 2.0842 4.1233 3.0061 1.6082 1.0272 3.18 2.0392 4.7374 3.1461 1.5104 1.0734 3.1573 1.8935 4.8956 2.3017 1.5974 0.37514 2.7572 1.8429 3.8899 3.0197 1.2943 1.3447 3.109 2.0658 4.7007 2.9667 1.6148 0.914 3.6225-0.15785 5.3367 0.52958 1.768 0.70902 3.011 2.5859 4.7102 3.47 2.262 1.1769 5.0236 1.1322 6.9712 3.0509 1.4321 1.4108 3.4338 2.5149 4.0119 4.5059 0.47655 1.6413 1.5121 4.0332 3.263 3.9633 1.9416-0.0775 3.3202 0.54051 4.7344 2.4124 1.095 1.4495 3.3569 1.0531 4.6291 2.5211 0.51511 0.59439 0.642 1.5553 0.8519 3.0916 0.21869 1.6007-0.47008 2.9829 0.0702 4.8896 0.55756 1.9676-0.12868 4.2269-1.4662 5.6213-0.62148 0.64793-0.83207 1.154-1.5158 1.9505-1.3693 1.5953-3.1725 4.2894-1.47 5.9528 1.5271 1.492-0.11831 3.318-0.36485 5.0636-0.2885 2.0427 1.4147 3.5317 1.2406 5.6046-0.15468 1.842-1.1984 4.0996-0.0648 5.5576 1.2069 1.5521 3.0217 2.8515 4.8533 3.6581 4.6835 2.0625 9.7857 2.8912 14.82 3.4532 2.1989 0.24547 4.3788 0.28227 6.6065 0.41171 2.7859 0.16189 5.5694 0.27911 8.3598 0.40755 3.9773 0.18307 7.9368 0.2828 11.913 0.89457 5.1712 0.79551 10.367 1.7277 15.602 1.7495 5.4271 0.0226 10.874 0.29326 16.283-0.15142 0.87241-0.0717-1.2519 0.0653 0.50918 0.13317 0.90138 0.0347 4.0617 8e-3 5.7002-0.65404 1.4828-0.59886 2.401-0.61477 4.1249-1.495 1.396-0.71275 2.8052-1.8649 3.7503-3.2447 1.1518-1.6814 0.99083-3.7494 1.018-5.7001 0.0271-1.9428 0.26955-3.8884-0.45585-5.821-0.67968-1.8108-1.2358-4.9643-3.3758-5.1042-1.9673-0.1286-4.0388-0.10822-5.9672 0.0496-1.8774 0.15361-3.4088-1.3234-4.2365-2.8357-0.75834-1.3855-2.8096-2.389-4.476-1.9426-1.8791 0.50333-4.0218 0.83508-5.7115-0.67342-1.8501-1.6517-7.4242-4.3878-5.2014-5.3667 1.4013-0.61711 2.0746-2.2351 2.4384-3.5322 0.40315-1.4373-2.1585-2.0358-2.7646-3.1895-0.99293-1.89-2.7495-3.1044-4.0576-4.7482-0.5269-0.66216 0.88692 0.50593-0.22374-0.23291-1.6429-1.0929-2.9518-3.1195-5.1453-3.0224-1.6779 0.0743-3.2789 0.21354-5.0358 0.50548-2.2283 0.37025-2.1658-2.436-3.6822-3.7279-1.5682-1.3361-2.687-3.0627-3.2285-4.9875-0.50592-1.7983-2.124-3.4837-3.8689-3.8309-1.9885-0.39564-4.0146-0.3211-6.1427 0.02056-1.6521 0.26523-3.5367 0.67221-5.0094-0.39763-1.4057-1.0212-3.8504-2.9895-4.7951-1.5945-0.87505 1.2921-0.43692 3.6852-2.1095 4.957-1.7991 1.3681-1.3274-2.3213-2.9035-2.9503-1.697-0.67732-2.2313 1.9078-3.6334 2.8269-1.5374 1.0078-3.9747 0.0449-5.2772 1.8298-0.96099 1.3169-2.7856 2.9537-4.3204 1.237-1.3081-1.4631-3.2205-1.8946-5.13-2.1903-1.1925-0.18466 0.10982-0.0809-0.72403-0.15067-1.7195-0.14381-3.9025-1.182-4.227-2.8129-0.47656-2.3952-1.2922-4.5487-1.8107-7.0799-0.37125-1.8126 0.16993-3.7216-0.58872-5.4761-1.0759-2.4882-3.7493-1.119-5.5646-0.6942-1.4934 0.34949-2.8169-0.35808-3.8553-1.2921-0.95622-0.86011-0.40571-2.6646-0.54493-3.9152-0.2041-1.8335-0.52145-3.9875 0.86081-5.4396 1.0071-1.058 1.4218-1.9101 2.8963-2.8782 1.8182-1.1938 0.5651-2.6313-1.1127-3.1957-2.2143-0.7449-2.7353 1.7386-4.137 2.7645-1.6639 1.2178-2.4699 3.1307-4.213 4.3781-1.4236 1.0188-3.4612 0.92155-4.2101 1.3805-1.8674 1.1444-2.0988-1.6068-4.2928-1.4101-1.9949 0.17886-2.7416-2.0198-3.1943-3.8005-0.4015-1.5797-0.69805-3.206-0.36527-4.9183 0.28238-1.453 1.5295-4.7841 0.27389-4.7075-0.6941 0.04235-1.4911-2.4873-0.94396-3.7725 0.72854-1.7114 1.8733-3.2325 2.4892-4.9843 0.60359-1.717-0.206-4.0098 1.2102-5.166 1.1864-0.96856 3.4431-1.3898 5.1312-1.0253 1.8967 0.40958 5.3413 1.7184 5.7603-0.24447 0.46941-2.1995 2.9544-2.0611 4.6783-1.6365 1.8357 0.45219 3.4381 1.308 5.3278 0.0893 1.5515-1.0007 3.2801-1.117 4.7942 0.3517 1.0582 1.0265 1.5024 2.373 1.8256 3.921 0.39021 1.8689 2.2288 2.5904 3.4875 3.8181 1.3779 1.344 1.5979 6.6548 2.3397 5.0612 0.65308-1.4028 1.2636-2.9234 0.65307-4.5546-0.66798-1.7847-1.5432-3.4115-2.0024-5.3321-0.4005-1.6753-0.8811-3.711 0.78678-5.0812 1.4324-1.1767 3.3055-1.515 4.8457-2.6184 1.5503-1.1106 2.849-2.7346 2.94-4.6614 0.10511-2.2269 1.8082-3.0506 3.7883-3.4729 1.6705-0.3562 2.9608-1.3328 4.6231-1.9658 2.2771-0.86702 0.61965-3.1713-0.29985-4.3933-1.1177-1.4853-2.0796-3.2078-0.14699-4.6739 1.4841-1.1258 3.3932-2.0818 3.8339-4.0323 0.47254-2.0913 2.2635-2.9271 4.2908-3.4728 1.6072-0.43266 4.8937-1.9015 3.5681-3.5039-1.3151-1.5897-3.2255-2.4707-5.2448-2.8786-2.8032-0.56624-5.5485-1.3412-8.3926-1.7406-2.2751-0.31955-4.5765-1.1393-6.8205-1.176-2.0655-0.033793-4.043-0.62656-6.1406-0.59537-2.4344 0.036199-4.8597-0.011252-7.2786 0.39955-2.2905 0.38901-4.5362 0.76735-6.8536 1.1964-2.8835 0.53388-5.4338 2.0836-7.9658 3.4779-2.7121 1.4935-5.113 3.3923-7.5461 5.3715-1.2965 1.0546-2.5712 2.0929-3.8436 3.2046-2.9208 2.552-6.0013 4.9276-8.7219 7.6971-1.8105 1.8431-3.4138 3.8853-5.2098 5.7431-1.805 1.867-2.4547 4.4567-3.8614 6.5958-1.0975 1.6689-1.6889 3.7317-3.343 4.9377-1.7501 1.2759-2.9147 3.1348-4.425 4.6612-0.98185 0.9923-2.2914 2.615-2.6968 3.1502-0.74236 0.97993-1.2546 2.1474-1.8032 3.248z" style="paint-order:normal"/></g><g fill="#5ab59d"><path d="m422.1 167.61c0.31386 2.6874 1.6161 5.722 0.22558 8.1733-0.7897 1.3921-4.3968-0.5393-3.0728 2.107 1.0606 2.1197 0.16274 5.6975-2.4613 5.867-3.2744 0.21146-3.5735-3.7168-5.3452-5.4382-2.0375-1.9798-3.294 0.4869-3.1271 2.5671 0.17175 2.1402 2.1324 3.6674 2.5781 5.7056 0.49871 2.2809 0.84173 5.472 3.446 6.2161 2.6902 0.76865 4.0501-3.4718 6.6542-2.479 2.177 0.82996 2.2343 3.5524 2.0324 5.4961-0.28511 2.7446 2.5494 4.2968 5.2998 3.163 2.8618-1.1797 3.2551 2.5441 4.8177 3.9005 1.6574 1.4388 2.0881 4.084 4.392 4.74 1.6254 0.46283 3.4236 1.0062 4.1863 2.8421 1.0154 2.4441 4.0648 3.6145 4.7937 6.0871 0.73566 2.4954-3.2351 3.7608-1.3475 6.7309 1.2665 1.9928-0.29919 2.9637-2.6796 3.4494-2.7658 0.56434-2.3548 4.0156-4.3848 5.4727-2.1066 1.5122-4.5732 0.11389-6.8255 2.1972-1.9905 1.8412-3.6271 4.0976-4.0333 6.8902-0.4508 3.0991-0.50503 6.2174-0.28941 9.3347 0.171 2.4723-2.5332 3.26-4.075 1.189-1.6978-2.2806-2.4746-5.2215-2.0804-7.997 0.39301-2.767-1.6497-4.8826-4.1231-6.4576-2.1231-1.352-4.8354-3.5451-4.2917-6.0117 0.47129-2.1382 2.755-4.9354 0.76831-6.6354-2.072-1.7731-2.2414-4.6489-2.978-7.2231-0.62927-2.1989-1.1684-4.9064-3.5329-5.9903-1.9959-0.915-5.6379 0.49337-4.6739 2.8684 1.2788 3.1507-3.0583 2.3858-4.6997 3.3599-2.0709 1.2291-2.3984 3.842-2.149 5.9835 0.34545 2.9655-2.8583 1.2307-4.407 0.99212-1.8074-0.27845-6.488-2.4195-5.9175-0.13981 0.46416 1.855 0.0453 3.1454-1.3379 4.8064-1.5968 1.9174-0.31975 4.7823-1.5209 6.7363-1.0184 1.6567 1.1229 3.8325 0.10174 5.0666-1.6344 1.9753-4.4026 2.4905-6.1731 4.4198-1.6341 1.7806-2.046 4.501-1.6486 6.7829 0.46662 2.6795 3.3563 3.5927 5.6442 4.1069 1.8102 0.40678 3.4791 1.2982 4.7214 2.7345 1.4608 1.6888 3.6506 2.0504 5.8131 2.3421 2.0556 0.27725 4.3351 0.5402 6.1689-0.93412 2.288-1.8395 6.6005 0.0188 6.4098 2.7527-0.19815 2.8397-3.4195 2.7212-5.3656 1.4478-2.1925-1.4346-3.4177 0.39009-2.6074 2.8785 0.90081 2.7666-2.9605 1.8194-3.868 3.8579-0.98788 2.2191-1.2185 5.6951 1.1883 7.0043 2.5682 1.3971 3.0613-1.6964 3.2598-3.8155 0.28411-3.0319 2.8879-0.50052 4.5506 0.11333 2.3643 0.87286 1.084 4.834 3.8817 5.1173 2.263 0.22916 4.2064 1.0733 5.852 2.9955 1.5647 1.8278 1.5834 5.1627 4.7408 5.0472 2.505-0.0916 3.332 2.3788 4.1799 4.2278 1.048 2.2852 2.7812 4.0493 4.5459 5.9912 1.5536 1.7096-1.7951 3.1095 0.0473 5.5567 1.3305 1.7673 3.3098 4.5734 5.3776 3.7628 0.97843-0.38356-0.25711-3.973 1.5355-2.4246 1.9514 1.6855 1.5488 4.4292 2.8557 6.8164 1.4811 2.7055 4.2769 4.3219 5.6111 7.1664 0.98536 2.1008 0.40678 4.4202 0.37772 6.6385-0.0303 2.3157-1.2616 5.0845 0.11696 6.9462 1.7796 2.4032 2.237-1.6059 2.7085-3.2584 0.79098-2.7721 3.9158-4.2514 4.8541-6.859 0.70496-1.9592 2.8423-6.8442 4.744-4.1158 1.7165 2.4628 4.3673 1.1974 6.5582 0.45824 2.2142-0.74705 3.7535 0.82817 5.6781 1.5712 1.8428 0.71147 4.0456-0.72606 5.6954 0.15001 2.4723 1.3128 2.8188 4.052 3.6333 6.5415 0.86844 2.6544 3.3855 4.3836 6.1264 4.7383 3.2666 0.4227 6.7312 0.19799 9.6827-1.1197 2.1961-0.98044 2.6056-3.8708 5.1162-4.6426 2.7636-0.84948 5.3205-2.1756 8.1323-2.9426 3.3623-0.91728 6.4835-2.5803 9.241-4.6373 3.706-2.7646 5.2926-7.3306 7.4427-11.252 2.371-4.3238 3.5134-9.1869 5.1808-13.803 2.1786-6.0316 2.5562-12.493 2.8876-18.85 0.2724-5.2242 1.5049-10.861-0.5855-15.698-1.6007-3.7032-2.0505-7.7297-2.8151-11.652-1.2439-6.3812-1.4974-12.903-2.603-19.301-0.61239-3.5434-2.1295-6.8331-3.3525-10.193-1.2664-3.4789-3.2019-6.6582-4.6619-10.05-1.4503-3.3697-2.8525-6.7561-4.1794-10.179-1.6556-4.27-2.365-9.591-6.3847-12.239-2.6657-1.7561-5.7505-2.6322-8.772-3.5421-4.5269-1.3632-9.1111-2.498-13.714-3.569-3.0741-0.71536-6.2249-0.94817-9.348-1.3949-4.3274-0.61902-8.4856-1.9689-12.641-3.3594-4.3625-1.4599-8.6793-3.0693-13.103-4.3296-3.9441-1.1236-7.9321-2.1716-11.984-2.7731-2.9226-0.43393-5.8228 0.26569-8.6867 1.0735-0.65001 0.18335-1.3421 0.25014-2.0093 0.12393z" style="paint-order:normal"/><path d="m390.26 164.02c-0.82291 1.5579-1.9589 2.9333-3.3896 4.027-1.495 1.143-3.5518 1.7648-4.521 3.381-0.6738 1.1236-0.19903 2.4653-0.14234 3.698 0.0431 0.93861-0.78242 1.5788-1.6178 1.9856-1.0606 0.51651-2.6357 0.96799-2.7828 2.1806-0.12793 1.0549 0.84082 1.8364 1.7887 2.1428 1.1232 0.36309 1.4716 1.688 1.3822 2.7775-0.15218 1.8533-1.426 3.3272-2.6057 4.6627-1.4371 1.6268-2.7513 3.4191-3.3699 5.5641-0.45925 1.5925-0.55738 3.3222 0.0451 4.9289 0.51071 1.362 1.4422 2.487 2.4853 3.5615 0.4406 0.45389 1.0066 1.1744 1.6833 0.92735 0.70062-0.25577 0.81351-1.1028 0.9571-1.7396 0.37129-1.6467 1.9002-2.7682 2.4619-4.3364 0.25903-0.72323 1.4784-1.2444 1.9045-0.54832 0.59911 0.97886 0.14665 2.1549-0.25205 3.1181-0.42431 1.025-0.57492 2.1533-1.1004 3.1448-0.59298 1.1188 0.17513 2.4009 1.1289 3.107 1.157 0.85653 2.9149 0.27947 3.965 1.1869 0.58498 0.5055 0.43338 1.4083-8e-3 2.0166-0.89952 1.2388-1.6827 2.5677-2.1639 4.0364-0.53816 1.6426-1.1902 3.5834-0.39611 5.1468 0.33664 0.66277 1.4004 0.95386 1.9033 0.30224 0.8534-1.1057 0.60438-2.5785 1.1193-3.8304 0.45862-1.115 1.4762-1.8286 2.4139-2.5494 1.0922-0.83961 1.7305-2.088 2.4364-3.2501 0.96187-1.5835 2.02-3.3454 3.8164-4.0415 1.1591-0.44908 2.4772-0.0432 3.6299-0.42326 1.5244-0.50258 2.6241-1.895 3.086-3.3656 0.43483-1.3845-0.27982-3.1044-1.7349-3.5668-1.0567-0.33575-2.1016 0.20481-3.1464 0.53319-0.76612 0.24079-1.378-0.44349-1.7432-1.1469-0.67444-1.2993-2.216-1.9551-3.5935-1.8644-0.76814 0.0506-1.7094-0.17728-2.0291-0.9651-0.41823-1.0306 0.43341-2.1459 1.555-2.3242 0.93181-0.14807 1.8104 0.32529 2.7248 0.47188 1.4017 0.22471 3.0377 0.82201 4.2687 8e-3 1.0937-0.72356 1.131-2.2154 0.86524-3.4067-0.28023-1.2563-1.331-2.4269-2.7233-2.4487-1.8468-0.0289-3.7274 0.99951-5.5118 0.36092-1.0125-0.36234-1.1083-1.7576-0.49081-2.5492 0.49743-0.63769 1.3493-0.62094 2.0808-0.59329 0.91728 0.0347 2.0483 0.0794 2.658-0.73598 0.75605-1.0112 0.4272-2.3707-0.0185-3.4561-0.3332-0.81148-0.42995-1.6841-0.67108-2.5464-0.19587-0.70049-0.45199-1.6972 0.19005-2.1593 0.6758-0.48643 1.508-0.45264 2.2729-0.82184 1.6059-0.77521 3.5607-0.93859 4.8557-2.2686 1.6504-1.695 3.3491-3.4875 4.1932-5.6849 0.28393-0.73915-0.36827-1.3792-1.0569-1.7421-1.5115-0.7964-3.0476-1.5556-4.722-1.9993-2.6836-0.71114-5.4736-0.25815-8.2275 0.0241-1.2289 0.12595-2.6712-0.0876-3.6407 0.83873-0.0758 0.0724-0.14646 0.14999-0.21184 0.23184z" style="paint-order:normal"/><path d="m-3.2476 250.96c2.9182-1.718 6.254-1.5804 9.2614-0.11946 2.6769 1.3004 5.3465-0.76846 8.0226-1.0365 3.0242-0.30289 5.8227 0.5964 8.5165 1.8071 2.8826 1.2955 5.8247 3.044 9.1038 2.7295 2.8292-0.27136 5.9562-0.86071 8.0843-2.6187 1.5003-1.2393 2.3561-2.031 3.745-3.6752 1.9682-2.33 1.6018-6.0939-0.0978-7.9993-2.0731-2.3241-1.7687-6.1618 0.17552-8.3509 1.9229-2.165 5.215-3.0342 6.6428-5.935 1.2473-2.5342 2.6627-4.988 3.8142-7.5938 1.179-2.6681 2.3439-6.3464-0.09555-8.6161-2.4267-2.2579-3.7262-5.7801-2.354-9.2265 1.2899-3.2396-0.43357-6.4642-0.30857-9.7538 0.11474-3.0198 1.0122-6.2936 3.2996-8.1728 2.1654-1.7789 3.1396-4.3659 4.862-6.4792 2.5912-3.1791 6.73-2.1272 10.298-2.8988 3.5326-0.76404 7.1168-1.418 10.448-2.8634 3.218-1.3962 6.8654-0.92659 10.17-1.9458 3.2211-0.99333 6.0538 1.798 6.238 4.7799 0.19935 3.226 3.3826 4.2394 3.9328 7.6271 0.55552 3.4205-0.85112 7.9431 1.7291 10.253 2.4993 2.2371 4.6385 4.8956 7.2572 7.0282 2.3883 1.945 3.1586 4.8928 3.4751 7.861 0.3861 3.6208 1.3523 7.2356 1.2374 10.908-0.11143 3.5642-0.11988 7.098 0.10191 10.664 0.20458 3.2889 1.9835 6.2203 2.745 9.3489 0.69549 2.8577 1.9651 5.6996 3.9804 7.9736 2.0824 2.3497 4.0584 4.7087 6.4616 6.9194 3.1191 2.8694 8.8373 4.7618 8.9797 9.0135 0.0611 1.826 3.6578 5.3256 0.36569 6.0378-2.5778 0.55765-5.092 1.7281-7.8585 1.6466-3.0462-0.0897-7.1093-2.4787-9.3358 0.59418-1.7084 2.3578-2.4456 4.8037-3.4712 7.5286-0.98327 2.6123-4.8864 0.11051-5.1934 4.1711-0.22476 2.9724-0.17201 7.053-2.5666 8.8249-2.1945 1.6238-4.3812 3.3314-4.8092 6.2704-0.4148 2.8489-2.8214 4.6235-3.7115 7.3198-0.78233 2.3697-4.6582 10.024-0.91029 8.2771 2.5442-1.1856 3.6475-6.0334 5.8476-6.4496 0.23404-0.0443 2.7098-3.0856 3.0993-3.9621 1.2825-2.8864 5.1365-4.2513 4.7123-7.6867-0.44311-3.5888 3.5058-5.0105 4.7297-7.7166 1.2301-2.7196 1.5182-3.4713 4.1234-5.5211 2.3872-1.8783 1.9194-6.2135 4.7095-7.4035 3.126-1.3333 7.2224 0.129 9.5866 2.6878 0.4658 0.50417-0.19163-0.44672 1.3764 0.79184 2.3671 1.8698 5.2274 2.5823 7.8534 3.9661 2.8232 1.4878 5.2692 3.5141 7.3623 6.159 1.5538 1.9634 2.0784 3.5688 1.3707 6.6761-0.62815 2.758-1.6644 4.7972-4.8652 6.188-2.795 1.2146-4.6077 1.2236-7.3398 1.8057-2.348 0.50022-3.3652 2.6829-5.8716 3.8202-2.5711 1.1667-2.0441 5.8264-4.3982 6.2656-3.0705 0.57284-3.4452 3.9567-0.68854 5.6045 2.2928 1.3705 5.2921-0.70723 7.5321-2.101 2.6982-1.6788 3.2044-4.8878 5.1004-7.2365 2.5522-3.1617 7.0399-0.31101 8.2624 3.1034 1.0409 2.9072 1.1308 5.9879 1.5157 9.0391 0.35968 2.8511 0.68006 5.6371 1.0975 8.4925 0.49001 3.3516-0.19942 6.8359 0.673 10.095 0.99665 3.7227 2.2725 7.2624 2.8612 11.238 0.42415 2.8642-3.3731 4.1444-5.5929 4.4185-3.7883 0.4678-7.6515 0.1031-11.465 0.0227-4.4198-0.0932-8.6837-0.96559-12.82-2.5007-2.9652-1.1005-6.0931-1.6378-9.0892-2.6414-4.5323-1.5182-9.3551-0.67917-14.048-0.93678-3.3694-0.18495-6.8177-0.48066-9.9786-1.5891-2.231-0.78239-6.0222-2.3686-7.1832-3.32-2.0585-1.6869-5.5975-3.4441-5.3603-6.3724 0.3135-3.8699 5.3444-2.0852 7.8904-1.8179 3.3774 0.35456 5.7562-1.1826 7.2034-4.1813 1.1196-2.3199 6.0774-0.56844 3.6576-4.6153-1.3705-2.2921-2.2684-5.3966-5.4936-6.0387-3.3513-0.66718-6.819-0.75545-10.234-0.12517-0.58423 0.10784 0.79365-0.65241-0.58041-0.0627-2.5988 1.1152-5.0994-0.75746-7.5196-0.0314-2.4587 0.73764-5.4845 0.60749-6.991 2.8106-2.2854 3.3421-5.1504 0.28631-7.2617-1.793-2.2004-2.1671-6.1835-1.9002-9.1179-1.8241-2.9236 0.0758-4.251 3.2505-4.5072 5.6354-0.35825 3.334-4.4041 4.2541-5.466 7.1824-0.90571 2.4976-3.043 4.7666-6.0855 4.3664-3.3696-0.44328-6.2595-2.4354-9.2365-3.9425-1.9576-0.99098-4.3695-0.35994-6.2626-1.2325-2.6016-1.1992-5.2538-1.944-7.9289-3.0912-3.1698-1.3593-7.6068 2.2114-9.6412-0.31044-2.13-2.6403-2.9308-6.2359-3.8837-9.4724-1.9757-6.7107-2.015-13.74-2.2924-20.665-0.32288-8.0596 0.68143-16.165-0.1208-24.188-0.41608-4.1609-1.5043-8.2511-1.1482-12.469 0.25211-2.9865 0.66031-6.2019-0.58485-8.7759z" style="paint-order:normal"/><path d="m121.67 173.91c-0.49696 1.5056-1.8763 3.012-1.4689 4.5285 0.54591 2.0323 0.15701 4.6932-1.8553 5.5823-1.895 0.83735-5.1587 2.8484-2.7276 4.627 1.5501 1.134 3.0448 2.307 4.3004 3.6441 1.719 1.8305-0.44344 4.7263 0.88536 6.3045 1.5227 1.8084 3.9752 1.8224 5.8981 3.3992 1.0958 0.89857 1.7883 3.0399 2.0461 4.0164 0.3334 1.2631 1.1164 3.5755 1.5313 5.2808 0.4816 1.9791 0.25007 4.9641 2.2009 5.7251 2.3172 0.90396 2.9007-2.2424 3.5469-4.0556 0.80395-2.2559 1.076-5.0338 0.18437-7.2739-0.82338-2.0687-1.5319-4.2277-2.9434-6.0927-1.2533-1.656-1.6713-3.5374-2.3646-5.5282-0.75852-2.1783-0.19691-4.4803 0.88738-6.371 1.1141-1.9426-0.57345-3.8555-1.7969-5.2537-1.4202-1.623-3.0759-3.1192-4.6733-4.5699-1.2993-1.18-1.5162-3.8339-3.6508-3.963z" style="paint-order:normal"/></g><g fill="#87d68d"><path d="m442.08 172.48c-0.15406 1.619-1.5082 2.5003-2.4898 3.6421-0.38303 0.44558-0.58259 1.0831-0.99511 1.4956-0.61904 0.61904-1.3674 1.117-1.9976 1.7471-0.10623 0.10623-0.14377 0.26877-0.25 0.375-0.18785 0.18785-1.494 1.2061-1.7393 1.3696-0.6345 0.423-1.6406 0.19221-2.2129 0.74756-0.0282 0.0273 0.0171 0.0824 0 0.11768-0.17248 0.35709-0.24169 0.60051-0.34717 0.96337-0.0556 0.1914-0.16214 0.0517-0.22656 0.24024-0.10128 0.29643-0.10813 1.1165 0.12451 1.3042 0.0718 0.0579 0.21542-0.0689 0.27686 0 0.1344 0.15064 0.39911 0.43469 0.49267 0.6123 0.014 0.0265-0.12208 1.2829-0.125 1.3091-0.0675 0.60595-0.23601 0.39147-0.36181 0.83984-0.17597 0.62712-0.37025 1.1718-0.12549 1.7871 0.0308 0.0775 0.15229 0.52644 0.24804 0.62207 0.21899 0.2187 0.91499 0.47785 1.1162 0.62158 0.52087 0.37205 1.109 0.78514 1.7373 0.99365 1.2369 0.41049 2.7248 0.4392 4 0.625 0.22291 0.0325 0.46036-0.0659 0.67578 0 0.98304 0.30049 2.1082 0.92309 2.75 1.7485 0.12234 0.15734 0.34652 0.92161 0.36182 0.96289 0.16953 0.45733 0.30431 0.8916 0.37256 1.3701 0.19093 1.3388-0.23171 1.9587 0.62597 3.3882 0.12009 0.20014 0.33008 0.33008 0.49512 0.49512 0.33333 0.33333 0.64523 0.68957 1 1 0.95727 0.83761 2.624 1.6621 3.2207 2.8555 0.084 0.16809 0.34833 0.66497 0.36914 0.85742 0.0311 0.28787-0.0681 0.58723 0 0.86865 0.0624 0.25769 0.1722 0.36059 0.11914 0.6167-0.16955 0.81842-0.77917 1.6763-0.11962 2.4639 0.74597 0.89073 1.7096 1.7683 2.6157 2.4912 0.23487 0.18738 0.53754 0.28754 0.75 0.5 0.20306 0.20306 1.1528 1.306 1.25 1.5 0.0528 0.10546 0.24497 1.0736 0.25 1.1235 0.11178 1.1109-0.3588 1.2717-0.4878 2.3037-0.0738 0.59077-0.0541 1.3273-0.37353 1.8687-0.32956 0.55853-0.60769 0.67724-0.49121 1.4912 0.0858 0.59937 0.61525 1.1055 0.87305 1.6211 0.45625 0.91252 0.90157 2.6829 0.62451 3.6401-0.60101 2.0765 0.0165-0.73744-0.37451 0.86133-0.24102 0.98549-0.35039 2.0124-0.61719 2.9907-0.22291 0.81734-0.6349 1.5721-0.87695 2.3789-0.0611 0.2035-0.0461 0.42774-0.125 0.625-0.27368 0.68419-0.82451 1.2898-1.25 1.875-0.52075 0.71622-0.38186 0.79527-1.1279 1.2544-1.3901 0.85544-0.53995 0.208-1.625 0.75-0.51662 0.25805-1.1437 0.57377-1.627 0.875-0.10001 0.0623-0.14462 0.19724-0.25 0.25-0.71048 0.3557-1.8343 0.38264-2.6089 0.49316-0.57287 0.0817-0.94682 0.5543-1.3716 0.87158-0.19465 0.1454-0.44341 0.21359-0.625 0.375-0.19227 0.17091-0.68184 0.89318-0.875 1.125-0.33638 0.40372-0.95137 0.73254-1.1235 1.249-0.23098 0.69292-0.061 0.7961-0.125 1.5-0.0192 0.21158-0.10144 0.41385-0.125 0.625-0.18754 1.6806 0.0993 3.4305 0 5.1201-0.0222 0.37698-0.0833 0.75065-0.125 1.126-0.0425 0.42123-0.10365 0.84098-0.12744 1.2637-0.0351 0.62402 0.0479 1.2518 0 1.875-0.0194 0.25271-0.10695 0.4972-0.125 0.75-0.0697 0.97638 0.0131 1.906-0.125 2.8726-0.0337 0.23607 0.0442 0.64708 0 0.8667-0.16845 0.83663-0.28199 0.61281-0.5 1.375-0.0989 0.3457-0.0631 0.76321-0.125 1.1172-0.10462 0.59861-0.38898 1.3247-0.63233 1.8721-0.62871 1.4143-1.5861 3.075-2.875 3.9956-0.48004 0.34289-1.0337 0.54008-1.5801 0.73877-0.37022 0.13463-0.83517 0.33122-1.2402 0.37061-0.41471 0.0403-0.83333 0-1.25 0-0.3247 0-0.73863 0.0343-1.0151 0-0.0716-9e-3 -1.784-0.32585-2.1382-0.50293-0.13373-0.0669-0.23562-0.19015-0.37305-0.24902-1.2912-0.55315 4e-3 0.0651-0.73974-0.125-0.41463-0.10604-0.76586-0.38681-1.1221-0.62403-0.37504-0.24975-0.56298-0.68809-0.87061-0.99511-0.6655-0.66419-1.6988-1.482-2.2368-2.2354-0.10829-0.15164-0.15124-0.34198-0.25-0.5-0.46742-0.74788-0.23926-0.26235-0.75-0.875-0.46808-0.56148-0.84995-1.224-1.3706-1.7446-0.18865-0.18866-0.43635-0.31135-0.625-0.5-0.10623-0.10623-0.14394-0.26861-0.25-0.375-0.1052-0.10554-0.25973-0.15009-0.37158-0.24854-1.0089-0.88802-1.9422-1.9296-2.6812-3.0381-0.19348-0.29023-0.59199-0.50155-0.83691-0.71142-0.72864-0.62437-1.6236-1.7496-1.9854-2.5938-0.27934-0.6518-0.51777-1.5315-0.375-2.2476 0.0542-0.27211 0.24798-0.49645 0.37207-0.74463 0.60143-1.2029 0.68249-2.2593 0-3.4878-0.56151-1.0107-1.3825-1.8842-2.1255-2.7505-0.0417-0.0832-0.0833-0.16634-0.125-0.24951-0.0415 0-0.0934 0.0275-0.12451 0-0.0275-0.0242 0.0293-0.0879 0-0.10987-0.49551-0.37075-1.7399-0.82296-2.106-1.25-0.15811-0.18446-0.24456-0.42002-0.375-0.625-0.53416-0.83939-0.56024-0.69094-0.88818-1.6929-0.29972-0.9157-0.28541-1.9396-0.64649-2.8423-0.10583-0.26458-0.41203-0.39434-0.60449-0.60449-0.30069-0.32834-0.56486-0.69027-0.87988-1.0049-0.0196-0.0196-1.7961-1.6699-1.979-1.7241-1.3084-0.38775-1.9727-0.0413-2.4888 1.25-0.53111 1.3288-0.37745 2.8893-0.37745 4.2886 0 0.40277 0.0411 1.1124-0.125 1.5-0.35794 0.83536-1.2989 1.7996-1.8765 2.377-0.65763 0.65746-1.968 1.6052-2.7544 2.1294-0.65546 0.43697-1.4927 0.59587-2.1489 1.0122-0.19941 0.12652-0.33394 0.33403-0.50098 0.50098-0.64409 0.64378-0.70026 0.62746-0.62402 1.6177 0.0195 0.2527 0.0309 0.51468 0.125 0.75 0.52687 1.3172 2.4537 1.4191 3.5708 1.9272 0.85101 0.3871 0.52233 0.36829 1.4536 0.61914 0.44259 0.11922 1.11 0.17687 1.5825 0.36963 1.0586 0.43184 1.697 1.0032 2.668 1.6518 0.20203 0.13496 0.41667 0.25 0.625 0.375 0.25 0.125 0.51748 0.21989 0.75 0.375 0.65106 0.43432 1.2919 0.88762 1.8936 1.3882 0.0318 0.0264-0.0218 0.0889 0 0.12402 0.1605 0.25804 0.38456 0.47065 0.5791 0.7041 0.94912 1.139 1.8028 2.2668 2.624 3.498 0.72169 1.0821 0.0252-0.16477 1.125 1.375 0.58685 0.2393 0.38535 0.85053 0.625 1.25 0.59474 0.99136 1.3721 1.7702 2.2534 2.5044 0.16007 0.13335 0.35247 0.22791 0.5 0.375 0.0202 0.0202-0.0825 0.25388-0.0825 0.35157 0 0.75298 0.0287 1.4596 0.25 2.1934 0.29675 0.98376 1.2246 2.1663 1.8496 2.8716 0.26696 0.30124 0.62419 0.50918 0.91992 0.78223 1.0583 0.9771 0.86182 1.0032 2.1304 2.0054 0.90845 0.7177 2.3724 1.4214 3.2774 1.9526 1.3012 0.76387 2.4863 1.7286 3.7715 2.5142 1.2371 0.67559 1.5068 0.79945 2.6943 1.5396 1.3322 0.83029 0.18159 0.1795 1.6445 1.1377 0.15875 0.10398 1.6937 0.98948 2.189 1.4297 0.9797 0.87084 0.31652 0.34581 1.125 1.375 0.86976 1.1072 0.94841 0.92374 1.7544 2.1323 0.0729 0.10937 0.0833 0.24935 0.125 0.37402 0.0814 0.11833 0.15729 0.24061 0.24414 0.35498 0.16134 0.21249 0.3586 0.39876 0.5 0.625 0.35198 0.56318 0.60693 1.4102 0.875 2 0.56581 1.2448 1.4927 2.2213 2.2891 3.3057 0.50918 0.69332 1.258 2.1781 1.5361 2.957 0.0991 0.27747 0.0259 0.59754 0.125 0.875 0.27013 0.75636 0.83613 1.3809 1.1274 2.1294 0.12463 0.3202 0.14896 0.67161 0.25 1 0.2352 0.7644 0.55757 1.5024 0.91309 2.2188 0.13389 0.2698 0.37358 0.47904 0.50098 0.75196 0.34554 0.74023 0.52455 1.5852 0.87256 2.3301 0.40415 0.865 0.29613 0.37802 0.75 1.125 0.13471 0.22172 0.19169 0.97946 0.25 1.2119 0.31874 1.2708 0.4473 3.4745 1.7495 4.2583 1.2197 0.73414 2.3395-0.51842 3.4927-0.74951 0.20348-0.0408 0.4159 0.0188 0.62256 0 0.49967-0.0455 1.0021-0.0633 1.5-0.125 0.0914-0.0113 0.15555-0.11346 0.24707-0.12354 0.78214-0.0861 1.593 0.0869 2.375 0 0.17075-0.019 0.32926-0.10602 0.5-0.125 1.975-0.21943-1.3464 0.42139 1.7529-0.125 1.3156-0.23193 2.6389-0.52661 3.999-0.37548 0.6151 0.0683 3.3576 1.2342 3.9131 1.6045 0.92008 0.61338 3.7264 2.7836 5.0146 2.3936 2.052-0.62117 2.006-2.7008 4.3848-2.8838 2.0192-0.15532 3.9372 0.51236 5.8652 0.9961 1.1464 0.28763 2.2577 0.6197 3.3486 1.1064 0.8708 0.38852 1.6138 1.0104 2.4072 1.5205 1.4586 0.93768 2.9235 2.0504 4.5098 2.7544 0.57695 0.25604 1.2708 0.31475 1.8765 0.50147 1.0458 0.32243 2.1251 0.71928 3.1728 0.98096 0.24543 0.0613 0.50616 0.0526 0.74854 0.125 1.6949 0.50644 3.2571 1.1574 4.9883 1.5644 0.55673 0.13089 1.1248-0.77023 1.2388-1.0942 0.29744-0.84584 0.0993-1.8117 0.38183-2.6626 0.33741-1.0161 1.3082-1.8954 1.8774-2.7534 0.35296-0.53201 0.60966-1.1243 0.96778-1.6528 0.76845-1.1341 1.7787-2.1232 2.6558-3.166 2.4241-2.8821-0.78077 0.7219 1.9648-2.4863 0.87654-1.0242 2.5823-2.7435 3.2461-3.876 1.2139-2.0711 3.7472-7.9446 4.2671-9.9199 1.0794-4.1006 1.2356-8.2058 1.418-12.405 0.10456-2.408 0.1881-4.8175 0.22216-7.2275 0.0609-4.3104-0.14794-11.605 0.25-16.025 0.54977-6.1066 1.2613-6.395 1.6123-11.709 0.23273-3.5233-0.31556-7.4443-0.91895-10.802-0.6954-3.8694-2.84-7.2248-4.7168-10.585-0.30361-0.54366-0.66326-1.0616-0.896-1.6392-0.61842-1.5347-1.0644-3.134-1.6509-4.6812-1.427-3.7645-3.2423-7.3969-4.5493-11.207-0.84257-2.4559-0.64315-2.7718-1.6045-4.5967-1.113-2.1128-2.5666-4.2086-3.8291-6.2363-1.8406-2.9563-4.6924-7.4965-7.9043-9.3789-0.35636-0.20886-0.76647-0.31165-1.1323-0.50342-1.8146-0.95118-1.0735-0.80965-2.812-1.4038-6.0051-2.0523-12.451-1.5319-18.677-1.9722-3.761-0.26596-7.4769-1.0397-11.172-1.728-2.3234-0.43275-0.98068-0.0222-3.1997-0.63623-0.95794-0.2651-1.9457-0.56448-2.8872-0.87744-0.33782-0.1123-0.65462-0.28868-1-0.375-0.32799-0.082-0.67292-0.0705-1.0063-0.12647-1.9031-0.3194-3.897-0.68578-5.748-1.2656-0.33293-0.10429-2.0016-0.7062-2.2017-0.99121-0.19831-0.28249-0.38497-0.40257-0.72803-0.6084-0.40894-0.24537-1.0345-0.43339-1.5-0.5-0.1645-0.0235-0.33723 0.04-0.49853 0-6e-3 -2e-3 6e-3 -0.22577 0-0.23487-0.29793-0.49223 0.17225 1.0358-0.39844-0.84765z" style="paint-order:normal"/><path d="m390.65 160.15c-0.14427 1.0509 0.56438 2.269-0.0246 3.1593-0.49731 0.75174-0.65881 1.6651-0.72273 2.5398-0.0469 0.64261 0.0378 1.2878-0.10654 1.9287-0.14578 0.64752-0.19172 1.3089-0.243 1.9702-0.0731 0.94205-0.35582 1.8554-0.7973 2.701-0.54314 1.0404-0.94292 2.1468-1.2518 3.2823-0.16502 0.60666-0.0325 1.2673-0.21359 1.8624-0.15122 0.4969-0.38193 0.95192-0.45854 1.494-0.0922 0.65276-0.37654 1.2473-0.40212 1.9301-0.0215 0.57443-0.2732 1.1079-0.25522 1.6909 0.015 0.48506-0.2827 0.87418-0.35204 1.3499-0.0877 0.60187-0.21339 1.1939-0.40427 1.7757-0.27807 0.84755-0.6761 1.7153-1.4298 2.2458-0.34723 0.24439-0.44227 0.66822-0.64032 1.0186-0.28376 0.50205-0.92724 0.79344-0.99072 1.4122-0.0433 0.42229 0.31009 0.73516 0.7202 0.8509 0.72084 0.20344 1.4617 0.33968 2.1711 0.57909 0.41365 0.13961 0.74032 0.44849 1.1266 0.64206 0.61306 0.30722 1.2882 0.48381 1.8272 0.95249 0.63612 0.55315 0.80621 1.4148 1.0288 2.1975 0.14846 0.52185 0.51677 0.92667 0.75999 1.407 0.27187 0.53691 0.32901 1.1443 0.49844 1.7158 0.15471 0.52186 0.31067 1.0753 0.65672 1.4965 0.28523 0.34716 0.7154 0.73299 1.1662 0.64224 0.52737-0.10614 0.76896-0.6388 1.0212-1.0497 0.37036-0.60332 0.34668-1.3359 0.30116-2.007-0.0378-0.55754-0.64103-0.81959-0.86735-1.2752-0.22777-0.4585-0.64583-0.67492-1.115-0.88466-0.50881-0.22745-0.26951-0.91664-0.65791-1.2008-0.36744-0.26884-0.7389-0.52029-1.0091-0.91857-0.25509-0.37597-0.36554-0.81667-0.37974-1.2712-0.0161-0.5167-0.34433-0.96069-0.33789-1.4941 7e-3 -0.5482-0.12857-1.0798-0.25292-1.6104-0.40873-1.744-0.54477-3.5277-0.53067-5.3471 5e-3 -0.60125 0.37517-1.1021 0.47627-1.6897 0.18487-1.0745 0.74488-2.023 1.2009-2.9968 0.41343-0.88301 0.71336-1.8104 1.1062-2.7036 0.3611-0.82119 0.86233-1.5719 1.2487-2.3793 0.57165-1.1946 1.0582-2.4463 1.9219-3.4837 0.79029-0.94915 1.6867-1.9369 1.8668-3.2083 0.20333-1.4354-0.45235-2.8202-1.2377-3.982-0.76031-1.1248-1.554-2.276-2.6612-3.085-0.43112-0.31501-0.97899-0.41786-1.5165-0.3056-0.0798 0.0167-0.15954 0.0337-0.23976 0.0483z" style="paint-order:normal"/><path d="m-8.8278 261.39c2.9416-1.3113 6.1393-1.8671 9.3578-1.8 2.7681 0.0577 5.4282-0.37444 8.2745 0.36567 3.2548 0.84635 5.964 2.8124 9.2028 3.7973 4.3267 1.3157 8.8974 1.4286 13.268 2.5147 2.474 0.61487 4.6851-0.0731 7.1332 0.34629 2.9104 0.49853 5.4653-1.1417 7.9253-2.4632 2.7194-1.4608 4.8516-3.8462 6.5139-6.382 1.3341-2.0351 2.5621-4.0581 3.9204-6.1413 2.3312-3.5752 6.0895-6.8085 6.3961-11.18 0.16843-2.4015-1.4559-3.863-0.92342-6.5262 0.66893-3.346 3.022-5.8896 5.5017-8.1604 2.7006-2.4731 4.7145-5.6559 5.2775-9.3853 0.58888-3.9008-0.01204-7.8141-1.39-11.565-0.75419-2.0528-1.4176-4.1578-1.9626-6.2772-0.88693-3.4496 3.0735-4.2701 4.961-6.1925 1.7503-1.7826 3.4195-3.9094 5.7431-4.9519 2.9397-1.319 5.205 1.9522 5.7005 4.5255 0.57278 2.9744 3.5612 2.8052 5.6597 4.4962 2.4346 1.962 3.4071 5.2054 3.4158 8.1506 0.0074 2.4948 0.09648 5.8668-0.62192 7.6637-1.0255 2.565-1.2439 5.3075-1.4072 8.0522-0.17266 2.9015-0.7752 5.8406 0.29913 8.6974 1.321 3.5129 2.6527 7.3154 5.3664 9.902 2.7783 2.6481 6.0767 4.5867 9.3758 6.4972 2.2042 1.2764 4.5978 2.7004 4.9184 5.8037 0.31055 3.0057-2.2624 4.8266-4.8985 5.5609-3.5226 0.98128-6.0282 3.8551-7.7652 7.0342-1.6773 3.0698-4.2492 5.5472-5.7182 8.761-1.3569 2.9686-3.3899 5.455-4.2038 8.7713-0.73722 3.004-2.8577 5.1008-4.7596 7.4295-1.4687 1.7983-0.84067 4.3807-0.80806 6.3088 0.04676 2.7641-0.29901 7.0373-3.4017 7.5262-2.6585 0.41888-4.5306-1.0339-6.435-2.9914-2.0348-2.0914-4.4935-3.8043-7.4422-4.4596-3.0841-0.68539-6.5793-1.7858-8.3408-4.3888-1.9799-2.9258-5.6054-3.3529-8.9052-2.0448-3.5238 1.3969-6.3026 4.1578-9.438 6.2215-2.3788 1.5658-1.8717 5.5612-4.7466 6.3654-2.4505 0.68551-5.4418 1.5108-7.7674 0.28456-2.101-1.1078-4.2766-2.1024-6.5241-2.8414-2.6599-0.87455-5.3093-0.33049-8.0445 0.42926-4.8736 1.3538-10.017 1.0189-15.013 0.77171-2.99-0.14797-4.3516-2.8514-5.585-5.4024-1.619-3.3488-2.3633-6.9776-3.5304-10.553-0.95785-2.9342-0.49915-5.9918 0.04755-8.953 0.50187-2.7184-0.54519-5.743 0.14141-8.5549 0.39376-1.6126-0.19854-3.9756 1.2322-5.0634z" style="paint-order:normal"/><path d="m109.95 318.1c-0.12485 2.8291 0.8468 5.8321-0.17678 8.488-0.66651 1.7294-2.3827 3.5097-1.4007 5.4088 0.66581 1.2877 1.4836 2.4754 2.3088 4.0763 0.98588 1.9125 2.797 3.2989 4.6756 4.1674 3.1378 1.4506 6.6495 1.1059 9.976 1.926 3.1153 0.76797 6.2431 1.4796 9.317 2.3927 2.9731 0.88315 8.9302 4.5554 9.1998 1.4072 0.13551-1.5824 0.15271-2.9829 0.40281-4.6945 0.31701-2.1694 2.076-4.6725 0.8367-6.5777-1.5361-2.3615-4.5986-2.8339-7.1419-3.4942-2.5536-0.66296-5.1047-1.1017-7.5997-2.202-3.4265-1.511-5.7854-4.636-7.4027-7.816-1.0196-2.0047-2.3821-3.7998-3.0498-5.9595-0.82291-2.6616-0.30179-5.4915 0.63366-8.1365 0.71099-2.0103 2.3066-3.4041 3.9582-4.6939 1.4516-1.1335 2.3045-1.856 3.6467-3.4092 1.4897-1.7239 3.5969-2.7483 5.1686-4.367 1.4384-1.4814 2.7657-3.9576 1.8157-5.7932-0.90157-1.7421-1.9685-4.4539-4.1141-4.3512-2.7986 0.13398-4.3419 2.7406-5.6875 4.7922-1.339 2.0415-1.7939 4.6469-3.5583 6.3815-1.5375 1.5115-2.7847 3.2547-4.0961 4.9674-1.3325 1.7403-2.2646 3.585-3.2968 5.5835-1.2271 2.3758-2.9405 4.4684-3.4736 7.2188-0.30912 1.595-1.6055 2.9981-0.94171 4.6852z" style="paint-order:normal"/></g><g fill="#bcebcb"><path d="m-14.634 272.69c6.7115-3.113 15.047-3.6171 21.766-0.37167 5.6383 2.7234 12.03 4.0587 18.185 3.7196 5.441-0.29977 10.607-0.98267 16.139-1.2843 5.1416-0.28037 9.4382-5.6571 14.375-9.9392 4.1524-3.6014 10.996-6.7752 11.672-12.191 0.79377-6.3645 3.6089-10.231 4.6238-16.025 1.1054-6.3107 2.7842-16.476 8.8083-15.808 3.5114 0.38978 1.4182 8.1279 1.0722 11.897-0.7162 7.8008 8.4008 8.9168 12.237 13.74 4.7295 5.9475-7.5549 4.5964-10.942 6.9575-5.0596 3.5274-14.441 5.6239-14.183 12.676 0.16237 4.4369 4.5777 18.261-3.1674 13.893-6.7388-3.8012-15.861-5.118-22.257-0.27525-5.8023 4.3934-8.881 10.196-15.922 14.154-2.039 1.1463-7.4391-4.4132-11.097-6.1053-7.9562-3.6806-16.642-1.2113-24.515 0.77484-6.3034 1.5902-11.425-2.1064-9.1411-9.3685 0.77242-2.4555 1.0114-4.2172 2.3459-6.4432z" style="paint-order:normal"/><path d="m530.74 248.27c-3.3674 0.33515-6.5778-0.50198-9.4571-2.6514-2.8538-2.1303-6.1243-2.9824-9.4433-3.9735-4.0508-1.2095-5.2077-5.5649-7.5591-8.5649-2.3873-3.0458-2.6724-6.9617-3.9393-10.487-1.4508-4.0373-3.0631-8.0033-4.6099-12.037-1.139-2.9708-2.9857-7.0615-4.9555-8.5804-2.1384-1.6488-5.8133-5.1315-8.7247-7.2534-3.1279-2.2797-6.7162-4.04-10.465-5.0098-3.6691-0.94914-6.3525-3.7692-9.7559-5.214-3.8074-1.6163-10.054-3.2732-12.198 0.10331-2.2332 3.517 0.11319 8.4334 4.0791 9.7223 3.0648 0.99606 6.6583 1.4786 9.0122 3.6812 2.5996 2.4327 2.4555 5.4901 4.5951 9.2719 2.4426 4.3173 7.7974 5.7279 10.43 9.6181 1.7117 2.5291 4.0577 8.0565 0.75687 9.4604-2.5671 1.0918-6.9836 1.601-6.882 5.4526 0.0864 3.2745 0.90856 7.2635-1.6011 9.8578-2.5116 2.5963-4.743 5.9496-8.1496 7.0122-4.4708 1.3946-0.86608 6.261-2.0106 9.2636-1.1538 3.0269-1.8278 6.616-4.6808 8.5202-2.8776 1.9206-5.3007 4.4992-8.1774 6.409-3.0348 2.0148-4.1355 5.9729-2.1347 9.318 2.1523 3.5984 6.8355 4.1029 10.661 4.6389 2.3106 0.32378 6.0611-0.57238 9.0266-0.25617 3.4591 0.36883 6.811 1.0739 10.302 1.149 4.7049 0.10116 8.8928 2.5645 12.807 4.9579 2.7478 1.6803 5.2853 3.8922 8.5102 4.0565 3.6131 0.1841 6.7129-0.35043 10.001-2.7844 1.4596-1.0805-1.4206 0.47627 0.5263-0.73734 3.64-2.269 1.8556-6.938 3.4528-10.147 1.7108-3.4377 1.092-7.2065 1.4413-10.971 0.36652-3.9495 2.1355-7.5532 3.346-11.299 1.3897-4.301 6.0718-5.3272 9.8791-6.4033 2.9033-0.82066 4.3297-4.9036 5.4458-6.5073l0.47176 0.38529z" style="paint-order:normal"/></g><g fill="#bcebcb" fill-opacity=".6837"><path d="m41.529 175.06 30.746-62.369 61.338 46.777z" style="font-variation-settings:'wght' 600"/><path d="m175.87 12.467-44.455 47.203 22.947 29.402 83.545-88.023z" style="font-variation-settings:'wght' 600"/><path d="m339.26 410.95 67.429-6.3598-20.897 40.956-56.846-0.73197z" style="font-variation-settings:'wght' 600"/><path d="m434.51 346.68-19.376 52.724 67.475-10.985 15.853-57.421z" style="font-variation-settings:'wght' 600"/></g><g fill="#5ab59d"><path transform="matrix(.95434 .044806 -.04797 1.0217 35.636 -25.312)" d="m384.4 438.68c-18.766 1.3122-37.531 2.6253-56.297 3.9375-3.3056 0.23138-5.7978 3.0987-5.5664 6.4043 0.23138 3.3056 3.0987 5.7978 6.4043 5.5664 18.766-1.3122 37.531-2.6233 56.297-3.9356 7.8257-0.54776 6.9898-12.52-0.83789-11.973zm168.3-86.282c-36.952 14.114-73.696 28.121-108.52 36.577-34.828 8.4564-68.33 11.524-102.21 14.61-3.4527 0.31412-5.9788 3.1835-5.6416 6.4084 0.33631 3.225 3.4084 5.5844 6.861 5.2695 33.883-3.0855 68.146-6.1891 104.15-14.932 36.007-8.7429 73.165-22.962 110.12-37.075 3.2107-1.226 4.7492-4.651 3.4364-7.6498-1.3134-2.9981-4.98-4.4342-8.19-3.2079zm-120.67-14.199c-2.6207 0.33197-4.9076 2.0514-5.6459 4.5314-8.64 29.033-17.134 57.408-34.806 84.904-17.671 27.496-45.174 54.973-72.979 82.648-2.5363 2.5239-2.3491 6.4694 0.41646 8.7731 2.7649 2.3044 7.0592 2.1266 9.5948-0.39786 27.805-27.674 55.918-55.55 74.692-84.762 18.775-29.213 27.558-58.906 36.198-87.939 0.98306-3.3072-1.1731-6.718-4.7843-7.6028-0.90289-0.22087-1.8131-0.26427-2.6867-0.15362zm0.13605 0.95556c0.7421-0.0934 1.5186-0.0568 2.2885 0.13095 6.8e-4 1.6e-4 1e-3 -2.4e-4 2e-3 -1e-4 3.0809 0.75585 4.8795 3.6181 4.0491 6.4117-8.6402 29.034-17.4 58.622-36.089 87.701-18.689 29.08-46.753 56.923-74.559 84.598-2.1534 2.144-5.8048 2.2954-8.1529 0.33844-2.3486-1.9564-2.5052-5.2484-0.35112-7.392 27.806-27.675 55.354-55.181 73.112-82.812 17.758-27.631 26.276-56.108 34.916-85.142 0.62383-2.0954 2.5563-3.5537 4.7846-3.8342zm2.4205-0.33522c-3.347-0.8188-6.7955 0.98976-7.7036 4.0401-8.6401 29.034-17.146 57.46-34.861 85.023-17.715 27.563-45.24 55.054-73.046 82.729-2.3452 2.3337-2.1733 5.953 0.38377 8.083 2.5565 2.1307 6.5302 1.9656 8.8747-0.36863 27.806-27.675 55.893-55.533 74.625-84.679 18.732-29.146 27.505-58.786 36.145-87.82 0.90681-3.0506-1.0705-6.1876-4.4171-7.0076z" color="#000000"/><path d="m182.45 2.0332c-1.5904 0.046065-3.0973 0.72191-4.1895 1.8789l-44.529 47.168c-10.972-13.253-23.631-26.423-36.215-39.518-1.1029-1.1468-2.6162-1.8086-4.207-1.8398-1.5907-0.030965-3.1285 0.57111-4.2754 1.6738-2.3888 2.2956-2.4649 6.093-0.16992 8.4824 16.353 17.016 32.55 33.908 44.572 50.244 4.591 6.2385 8.621 12.462 12.324 18.697-14.044 12.969-28.089 25.939-42.133 38.908-6.6532-4.5982-13.012-9.3007-18.885-14.188-16.701-13.897-30.143-29.634-43.82-45.682-1.0322-1.2115-2.5033-1.9632-4.0898-2.0898-1.5863-0.12669-3.1579 0.38196-4.3691 1.4141-2.5221 2.1497-2.8238 5.9371-0.67383 8.459 10.543 12.37 21.247 24.917 33.691 36.762l-31.182 57.092c-1.5888 2.9086-0.51836 6.5545 2.3906 8.1426 2.9086 1.5888 6.5545 0.51837 8.1426-2.3906l29.795-54.555c0.80827 0.6928 1.6171 1.3844 2.4414 2.0703 17.687 14.717 38.629 27.391 59.34 39.957 2.8331 1.719 6.5234 0.81566 8.2422-2.0176 1.719-2.8331 0.81566-6.5234-2.0176-8.2422-9.7642-5.9243-19.462-11.829-28.752-17.867 12.65-11.681 25.299-23.364 37.949-35.045 3.55 6.5441 6.8847 13.115 10.236 19.748 0.71778 1.4204 1.9705 2.4974 3.4824 2.9941 1.5121 0.49681 3.1597 0.37245 4.5801-0.34571 2.9558-1.4947 4.1413-5.1018 2.6484-8.0586-3.7895-7.4998-7.6366-15.08-11.863-22.727 12.265-11.326 19.294-18.014 31.559-29.34 2.434-2.2485 7.8221-10.683 5.5736-13.117-1.0794-1.1684-2.5786-1.8604-4.168-1.9238-1.5903-0.064-3.1409 0.50649-4.3105 1.5859-11.605 10.717-23.21 21.434-34.814 32.15-3.5179-5.7989-7.3327-11.633-11.654-17.506-0.59415-0.80734-1.2354-1.6132-1.8457-2.4199l45.73-48.439c2.2752-2.4097 2.1659-6.2076-0.24414-8.4824-1.157-1.0923-2.7005-1.6804-4.291-1.6348z" color="#000000" stroke-linecap="round" stroke-linejoin="round" style="-inkscape-stroke:none"/></g><g fill="none" stroke="#5ab59d" stroke-linecap="round" stroke-linejoin="round" stroke-width="3"><path d="m321.9 56.832 39.568-13.822m49.949 117.25-13.699-31.065m25.405-27.069c-16.729-8.8949-50.187-26.685-50.187-26.685s-23.08 12.177-34.621 18.266m4.9739 29.106c26.648-6.9066 79.944-20.72 79.944-20.72s-34.029 36.106-51.043 54.16m121.54-38.615c-23.511-5.1886-70.534-15.566-70.534-15.566s17.546 43.06 26.319 64.59m-95.968-157.96c2.8269 11.417 5.6539 22.834 8.4808 34.251 3.7187 10.414 11.156 31.241 11.156 31.241s47.08-3.1593 70.621-4.739"/><path d="m184.03 437.33-22.946 12.878m-44.873-24.049 44.789 23.924-17.162 44.041m-42.821-143.13 23.209 39.15-34.156 11.374m16.994 63.558 17.214-75.001 43.099 6.4575m-139.44-3.1636 62.132 8.0781-26.976-61.447"/></g><g fill="#bcebcb"><circle cx="89.576" cy="401.04" r="5.3851"/><circle cx="123.46" cy="389.31" r="5.3851"/><circle cx="115.99" cy="426.11" r="5.3851"/><circle cx="160.46" cy="449.92" r="5.3851"/><circle cx="361.52" cy="42.673" r="5.3851"/><circle cx="373.2" cy="74.363" r="5.3851"/><circle cx="422.43" cy="101.78" r="5.3851"/><circle cx="397.54" cy="128.65" r="5.3851"/></g><g transform="matrix(1.1549 0 0 1.1549 -34.416 -26.992)"><path d="m255.48 155.24c0.0388 2.7251 0.90395 2.8548 1.8984 5.0866 1.0142 2.2762 0.41496 4.3934 0.99348 7.1557 0.57444 2.7428 4.6073 3.772 4.7995 6.347 0.20272 2.7154 0.0437 5.3177 0.2567 8.2833 0.2693 3.749 0.30527 7.5204 1.3759 11.226 0.81961 2.8368 0.30803 6.0728 2.1179 8.6932 1.8682 2.7048 2.7338 7.3217 5.9634 7.9021 1.5867 0.28515 2.3443 0.61693 4.7248 1.9716 2.074 1.1803 5.0698 2.604 7.2286 1.3144 2.7704-1.6549 5.6315-0.75175 8.731-1.5109 2.8482-0.69758 4.6101 2.6462 5.765 4.6969 1.4276 2.5349 5.4729 10.361 3.5498 8.057-0.94026-1.1265 0.56134 2.5692 0.95981 3.1323 1.4925 2.1091 2.317 4.5115 3.0628 6.972 0.78307 2.5838 1.0802 4.0647 2.1965 6.8477 1.1087 2.764 3.14 5.0846 3.6839 8.1204 0.56544 3.1564 1.3296 6.2302 2.6013 9.2414 1.1856 2.8071 3.074 6.7422 0.92826 9.1424-2.2813 2.5518-2.4594 12.284-3.3312 9.1438-0.36947-1.3307-0.59029 2.5423-0.70896 3.3145-0.44697 2.9085 1.1552 5.4473 2.0488 8.0871 1.2019 3.5501-2.7668 5.2658-5.1246 6.9366-2.2922 1.6244-5.7756 2.408-6.6881 5.0896-1.0266 3.0173-4.6559 4.8854-6.7782 3.956-1.5945-0.69829-2.2183-0.0564-3.0907 1.2802-0.84122 1.2888-2.1476 2.8647-3.9408 3.7662-2.4083 1.2108-5.0152 2.7574-6.9308 4.1498-2.3683 1.7216-6.4752 2.0974-6.2134 5.8658 0.23507 3.3839-2.862 5.0539-5.5628 5.5808-2.3571 0.4598-3.5703 2.6642-5.8459 1.7122-2.8401-1.1883-5.051 1.0468-7.6595 1.5219-3.2258 0.58751-6.119 3.4911-9.3645 2.952-2.3492-0.39023-4.274 0.69267-6.8969 0.44958-5.924-0.54905-11.77-1.8546-17.78-1.5407-3.4373 0.17952-7.4444 3.174-10.267 1.1251-1.6257-1.1801-3.1949-2.8627-4.887-3.9072-1.631-1.0069-1.9832-3.5714-2.2809-5.5388-0.57533-3.8027 0.4589-7.5866 0.52536-11.374 0.0559-3.1873-0.83904-6.2974-1.0538-9.4599-0.27417-4.0375 1.1518-8.2357-6e-3 -12.125-0.76218-2.5615-2.3777-3.9783-2.9059-7.0429-0.51409-2.9829 0.22394-6.0453 2.2216-8.1252 1.1182-1.1642 1.2147-2.6272 1.7187-3.9731 0.51323-1.3703 1.4334-3.7391 1.6268-5.6333 0.29135-2.854-0.0969-6.1521-2.7587-8.0076-3.1188-2.1741-7.1054-2.9498-9.8628-5.712-2.037-2.0406-2.3727-4.9475-4.0227-7.1758-3.008-4.0622-5.9508-8.4449-10.156-11.216-2.68-1.7661-4.0305-4.3031-6.0172-6.8994-1.7499-2.287-3.152-4.5306-4.5654-6.9643-2.5809-4.444-4.7668-9.4578-4.6436-14.559 0.0682-2.8236 0.0696-5.6202-0.0509-8.4618-0.42291-9.9751-0.56285-20.25 2.738-29.837 0.8332-2.4199 2.3891-4.7308 5.2845-4.7464 2.6836-0.0145 4.5747-1.9457 7.298-2.1087 2.9095-0.17421 5.5694-1.5295 8.4296-1.5807 5.1082-0.0915 10.181 0.0881 15.321-0.12921 2.5001-0.10572 4.7763-1.2332 7.1198-1.5421 4.3589-0.57444 8.5751 0.88746 12.942 0.80807 3.3486-0.0609 6.8825 0.7617 10.059-0.28472 3.04-1.0014 6.3612-0.5695 9.4952-0.28902 3.8944 0.34854 7.8817 0.76476 11.728-0.18402z" fill="#59b49d" fill-opacity=".48673" style="font-variation-settings:'wght' 600"/><g fill="#bbebca"><circle cx="272.41" cy="262.94" r="24.497" style="font-variation-settings:'wght' 600"/><circle cx="208.92" cy="207.54" r="18.473" style="font-variation-settings:'wght' 600"/><circle cx="291.7" cy="189.08" r="11.818" style="font-variation-settings:'wght' 600"/></g><g fill="#87d68d"><path class="st0" d="m271.2 227.89c-18.804 0-34.045 15.243-34.045 34.046 0 11.603 5.8727 21.757 14.67 27.996 8.0267 5.6941 9.7988 7.0526 12.621 12.441 2.233 4.2623 5.8546 11.743 5.8546 11.743 0.17018 0.34035 0.5173 0.55612 0.89935 0.55612 0.38035 0 0.73053-0.21594 0.90054-0.55612 0 0 3.6218-7.4802 5.8546-11.743 2.8208-5.3885 4.5944-6.747 12.62-12.441 8.7986-6.2393 14.671-16.394 14.671-27.996-1.7e-4 -18.803-15.244-34.046-34.046-34.046zm0 56.862c-12.599 0-22.814-10.215-22.814-22.816 0-12.6 10.215-22.815 22.814-22.815 12.6 0 22.815 10.215 22.815 22.815 0 12.6-10.215 22.816-22.815 22.816z"/><path class="st0" d="m208.01 181.12c-14.179 0-25.672 11.494-25.672 25.673 0 8.7493 4.4284 16.406 11.062 21.111 6.0527 4.2937 7.389 5.3182 9.5172 9.3814 1.6838 3.2141 4.4148 8.8547 4.4148 8.8547 0.12833 0.25665 0.39009 0.41935 0.67817 0.41935 0.28682 0 0.55088-0.16283 0.67907-0.41935 0 0 2.7311-5.6406 4.4148-8.8547 2.127-4.0633 3.4645-5.0877 9.5162-9.3814 6.6347-4.7049 11.063-12.362 11.063-21.111-1.3e-4 -14.179-11.495-25.673-25.673-25.673zm0 42.878c-9.5004 0-17.203-7.703-17.203-17.205 0-9.5014 7.703-17.204 17.203-17.204 9.5014 0 17.204 7.703 17.204 17.204 0 9.5016-7.7029 17.205-17.204 17.205z"/><path class="st0" d="m291.12 172.17c-9.0716 0-16.425 7.3537-16.425 16.425 0 5.5976 2.8332 10.496 7.0774 13.507 3.8724 2.747 4.7273 3.4024 6.0889 6.0021 1.0773 2.0563 2.8245 5.6651 2.8245 5.6651 0.0821 0.1642 0.24957 0.26829 0.43388 0.26829 0.1835 0 0.35244-0.10418 0.43446-0.26829 0 0 1.7473-3.6088 2.8245-5.6651 1.3608-2.5996 2.2165-3.255 6.0882-6.0021 4.2448-3.0101 7.078-7.909 7.078-13.507-8e-5 -9.0715-7.3544-16.425-16.425-16.425zm0 27.432c-6.0782 0-11.006-4.9282-11.006-11.007 0-6.0788 4.9282-11.007 11.006-11.007 6.0788 0 11.007 4.9282 11.007 11.007 0 6.0789-4.9282 11.007-11.007 11.007z"/></g></g></g></g></svg>
