<?xml version="1.0" encoding="UTF-8"?>
<!-- Created with Inkscape (http://www.inkscape.org/) -->
<svg width="32" height="32" version="1.1" viewBox="0 0 8.4667 8.4667" xmlns="http://www.w3.org/2000/svg">
 <defs>
  <mask id="mask1" maskUnits="userSpaceOnUse">
   <g transform="rotate(180 4.016 4.0856)">
    <path d="m7.4249 5.1092c-0.14554 0.06958-0.30788 0.13239-0.48524 0.18965-0.38707 0.12498-0.84722 0.22205-1.3565 0.28422-0.062233 0.50938-0.15932 0.96967-0.28422 1.3565-0.057462 0.17797-0.12031 0.34087-0.19017 0.48679a3.3145 3.3145 0 0 0 2.3161-2.3172z" fill="#fdfeff" style="font-variation-settings:'wght' 600"/>
    <path d="m5.6276 3.3445c0.021961 0.2856 0.034623 0.58158 0.034623 0.8878 0 0.30628-0.01162 0.60397-0.03359 0.88987 0.44606-0.059448 0.84615-0.14526 1.1741-0.25115 0.32122-0.10372 0.57275-0.22724 0.73019-0.34727a3.3145 3.3145 0 0 0 0.014986-0.29042 3.3145 3.3145 0 0 0-0.01757-0.29197c-0.15758-0.11948-0.40793-0.2425-0.7276-0.34572-0.32812-0.10594-0.72868-0.1918-1.1751-0.25115z" fill="#fdfeff" style="font-variation-settings:'wght' 600"/>
    <path d="m5.1072 1.0371c0.070473 0.14674 0.13384 0.31063 0.19172 0.48989 0.1249 0.38682 0.22044 0.84823 0.28267 1.357 0.50968 0.062187 0.97074 0.15865 1.3581 0.2837 0.17736 0.057267 0.3397 0.12007 0.48524 0.18965a3.3145 3.3145 0 0 0-2.3177-2.3203z" fill="#fdfeff" style="font-variation-settings:'wght' 600"/>
    <path d="m5.1227 5.6281c-0.28523 0.022002-0.58237 0.034107-0.88832 0.034107-0.30639 0-0.60436-0.012058-0.89038-0.034107 0.05956 0.4457 0.1458 0.84467 0.25166 1.1725 0.10286 0.31856 0.22508 0.5704 0.34416 0.72812a3.3145 3.3145 0 0 0 0.29352 0.01912 3.3145 3.3145 0 0 0 0.29456-0.021187c0.11867-0.15783 0.24066-0.40868 0.34313-0.72605 0.10586-0.32787 0.1921-0.72684 0.25166-1.1725z" fill="#fdfeff" style="font-variation-settings:'wght' 600"/>
    <path d="m4.2344 3.2541c-0.32527 0-0.63999 0.014485-0.93948 0.040308-0.025716 0.2994-0.040824 0.61288-0.040824 0.93793 0 0.32532 0.014032 0.64036 0.039791 0.93999 0.29982 0.025912 0.61482 0.040308 0.94051 0.040308 0.3251 0 0.6393-0.014447 0.93844-0.040308 0.025759-0.29963 0.039791-0.61467 0.039791-0.93999 0-0.32486-0.015136-0.63816-0.040824-0.93741-0.29875-0.026051-0.6125-0.040825-0.93741-0.040825z" fill="#fdfeff" style="font-variation-settings:'wght' 600"/>
    <path d="m4.2333 0.91881a3.3145 3.3145 0 0 0-0.29352 0.01912c-0.11909 0.15768-0.24131 0.4075-0.34416 0.72605-0.106 0.3283-0.1921 0.7282-0.25166 1.1746 0.286-0.022022 0.58394-0.034106 0.89038-0.034106 0.30598 0 0.60312 0.011604 0.88832 0.03359-0.059565-0.4462-0.1457-0.84591-0.25166-1.1741-0.10384-0.3216-0.22762-0.5733-0.34778-0.7307-3.126e-4 -4.0958e-4 -7.212e-4 -6.2549e-4 -0.0010335-0.0010335a3.3145 3.3145 0 0 0-0.28887-0.013436z" fill="#fdfeff" style="font-variation-settings:'wght' 600"/>
    <path d="m2.8835 5.5831c-0.50949-0.062185-0.96958-0.15929-1.3565-0.28422-0.17771-0.057379-0.34051-0.11991-0.48628-0.18965a3.3145 3.3145 0 0 0 2.3187 2.3198c-0.070392-0.14663-0.13389-0.31028-0.19172-0.48938-0.1249-0.38684-0.22199-0.84713-0.28422-1.3565z" fill="#fdfeff" style="font-variation-settings:'wght' 600"/>
    <path d="m2.8391 3.344c-0.44585 0.059497-0.84514 0.14579-1.1731 0.25166-0.31967 0.10322-0.57206 0.22623-0.72967 0.34572a3.3145 3.3145 0 0 0-0.01757 0.29197 3.3145 3.3145 0 0 0 0.014986 0.29042c0.15744 0.12003 0.41103 0.24355 0.73226 0.34727 0.32764 0.10579 0.7266 0.19167 1.172 0.25115-0.021969-0.2859-0.03359-0.58359-0.03359-0.88987 0-0.3064 0.012637-0.60256 0.034623-0.88832z" fill="#fdfeff" style="font-variation-settings:'wght' 600"/>
    <path d="m3.3595 1.0377a3.3145 3.3145 0 0 0-2.3177 2.3198c0.14554-0.06958 0.30788-0.13239 0.48524-0.18965 0.38699-0.12495 0.8484-0.2215 1.3581-0.2837 0.062234-0.50879 0.15777-0.9702 0.28267-1.357 0.057825-0.17909 0.12133-0.34274 0.19172-0.48938z" fill="#fdfeff" style="font-variation-settings:'wght' 600"/>
   </g>
  </mask>
 </defs>
 <g transform="translate(.43462 .29538)">
  <g transform="rotate(180 4.016 4.0856)" fill="#5ab59d" stroke-width="0" style="paint-order:markers stroke fill">
   <path d="m7.4249 5.1092c-0.14554 0.06958-0.30788 0.13239-0.48524 0.18965-0.38707 0.12498-0.84722 0.22205-1.3565 0.28422-0.062233 0.50938-0.15932 0.96967-0.28422 1.3565-0.057462 0.17797-0.12031 0.34087-0.19017 0.48679a3.3145 3.3145 0 0 0 2.3161-2.3172z" style="font-variation-settings:'wght' 600;paint-order:markers stroke fill"/>
   <path d="m5.6276 3.3445c0.021961 0.2856 0.034623 0.58158 0.034623 0.8878 0 0.30628-0.01162 0.60397-0.03359 0.88987 0.44606-0.059448 0.84615-0.14526 1.1741-0.25115 0.32122-0.10372 0.57275-0.22724 0.73019-0.34727a3.3145 3.3145 0 0 0 0.014986-0.29042 3.3145 3.3145 0 0 0-0.01757-0.29197c-0.15758-0.11948-0.40793-0.2425-0.7276-0.34572-0.32812-0.10594-0.72868-0.1918-1.1751-0.25115z" style="font-variation-settings:'wght' 600;paint-order:markers stroke fill"/>
   <path d="m5.1072 1.0371c0.070473 0.14674 0.13384 0.31063 0.19172 0.48989 0.1249 0.38682 0.22044 0.84823 0.28267 1.357 0.50968 0.062187 0.97074 0.15865 1.3581 0.2837 0.17736 0.057267 0.3397 0.12007 0.48524 0.18965a3.3145 3.3145 0 0 0-2.3177-2.3203z" style="font-variation-settings:'wght' 600;paint-order:markers stroke fill"/>
   <path d="m5.1227 5.6281c-0.28523 0.022002-0.58237 0.034107-0.88832 0.034107-0.30639 0-0.60436-0.012058-0.89038-0.034107 0.05956 0.4457 0.1458 0.84467 0.25166 1.1725 0.10286 0.31856 0.22508 0.5704 0.34416 0.72812a3.3145 3.3145 0 0 0 0.29352 0.01912 3.3145 3.3145 0 0 0 0.29456-0.021187c0.11867-0.15783 0.24066-0.40868 0.34313-0.72605 0.10586-0.32787 0.1921-0.72684 0.25166-1.1725z" style="font-variation-settings:'wght' 600;paint-order:markers stroke fill"/>
   <path d="m4.2344 3.2541c-0.32527 0-0.63999 0.014485-0.93948 0.040308-0.025716 0.2994-0.040824 0.61288-0.040824 0.93793 0 0.32532 0.014032 0.64036 0.039791 0.93999 0.29982 0.025912 0.61482 0.040308 0.94051 0.040308 0.3251 0 0.6393-0.014447 0.93844-0.040308 0.025759-0.29963 0.039791-0.61467 0.039791-0.93999 0-0.32486-0.015136-0.63816-0.040824-0.93741-0.29875-0.026051-0.6125-0.040825-0.93741-0.040825z" style="font-variation-settings:'wght' 600;paint-order:markers stroke fill"/>
   <path d="m4.2333 0.91881a3.3145 3.3145 0 0 0-0.29352 0.01912c-0.11909 0.15768-0.24131 0.4075-0.34416 0.72605-0.106 0.3283-0.1921 0.7282-0.25166 1.1746 0.286-0.022022 0.58394-0.034106 0.89038-0.034106 0.30598 0 0.60312 0.011604 0.88832 0.03359-0.059565-0.4462-0.1457-0.84591-0.25166-1.1741-0.10384-0.3216-0.22762-0.5733-0.34778-0.7307-3.126e-4 -4.0958e-4 -7.212e-4 -6.2549e-4 -0.0010335-0.0010335a3.3145 3.3145 0 0 0-0.28887-0.013436z" style="font-variation-settings:'wght' 600;paint-order:markers stroke fill"/>
   <path d="m2.8835 5.5831c-0.50949-0.062185-0.96958-0.15929-1.3565-0.28422-0.17771-0.057379-0.34051-0.11991-0.48628-0.18965a3.3145 3.3145 0 0 0 2.3187 2.3198c-0.070392-0.14663-0.13389-0.31028-0.19172-0.48938-0.1249-0.38684-0.22199-0.84713-0.28422-1.3565z" style="font-variation-settings:'wght' 600;paint-order:markers stroke fill"/>
   <path d="m2.8391 3.344c-0.44585 0.059497-0.84514 0.14579-1.1731 0.25166-0.31967 0.10322-0.57206 0.22623-0.72967 0.34572a3.3145 3.3145 0 0 0-0.01757 0.29197 3.3145 3.3145 0 0 0 0.014986 0.29042c0.15744 0.12003 0.41103 0.24355 0.73226 0.34727 0.32764 0.10579 0.7266 0.19167 1.172 0.25115-0.021969-0.2859-0.03359-0.58359-0.03359-0.88987 0-0.3064 0.012637-0.60256 0.034623-0.88832z" style="font-variation-settings:'wght' 600;paint-order:markers stroke fill"/>
   <path d="m3.3595 1.0377a3.3145 3.3145 0 0 0-2.3177 2.3198c0.14554-0.06958 0.30788-0.13239 0.48524-0.18965 0.38699-0.12495 0.8484-0.2215 1.3581-0.2837 0.062234-0.50879 0.15777-0.9702 0.28267-1.357 0.057825-0.17909 0.12133-0.34274 0.19172-0.48938z" style="font-variation-settings:'wght' 600;paint-order:markers stroke fill"/>
  </g>
  <g mask="url(#mask1)">
   <g transform="matrix(.33495 -.15502 .15502 .33495 6.9101 8.7424)" stroke-width="0">
    <g fill="#baebc9">
     <path d="m5.812-13.175a9.2651 4.3162 0 0 1-7.9954 2.1384 9.2651 4.3162 0 0 1-7.9959-2.1389 8.2971 8.2971 0 0 0 7.9959 6.12 8.2971 8.2971 0 0 0 7.9954-6.1195z" style="font-variation-settings:'wght' 600;paint-order:markers stroke fill"/>
     <path d="m-2.1833-23.65a8.2971 8.2971 0 0 0-7.9964 6.12 9.2651 4.3162 0 0 1 7.9964-2.1394 9.2651 4.3162 0 0 1 8.0047 2.1441 8.2971 8.2971 0 0 0-8.0047-6.1247z" style="font-variation-settings:'wght' 600;paint-order:markers stroke fill"/>
    </g>
    <g transform="translate(-.13423 .11304)" fill="#e18335">
     <path d="m4.0158-11.592a8.7066 5.4087 0 0 1-6.0647 1.5343 8.7066 5.4087 0 0 1-6.0653-1.5343 7.1981 7.1981 0 0 0 6.0653 3.3238 7.1981 7.1981 0 0 0 6.0647-3.3238z" style="font-variation-settings:'wght' 600;paint-order:markers stroke fill"/>
     <path d="m-2.049-22.664a7.1981 7.1981 0 0 0-6.0653 3.3238 8.7066 5.4087 0 0 1 6.0653-1.5348 8.7066 5.4087 0 0 1 6.0575 1.525 7.1981 7.1981 0 0 0-6.0575-3.314z" style="font-variation-settings:'wght' 600;paint-order:markers stroke fill"/>
    </g>
   </g>
  </g>
 </g>
 <g fill="#2d93ac">
  <circle cx=".96336" cy=".9498" r=".45813" style="font-variation-settings:'wght' 600;paint-order:markers stroke fill"/>
  <circle cx="7.1098" cy="1.0458" r=".69682" style="font-variation-settings:'wght' 600;paint-order:markers stroke fill"/>
  <circle cx="1.3378" cy="7.3803" r=".51904" style="font-variation-settings:'wght' 600;paint-order:markers stroke fill"/>
 </g>
</svg>
