<svg height="16" viewBox="0 0 24 24" width="16" xmlns="http://www.w3.org/2000/svg">
  <g class="jp-icon3" fill="#616161">
    <path style="fill:none;stroke:#616161" d="M 15.988502,12.000003 A 3.9884984,3.9884975 0 0 1 12.000004,15.9885 3.9884984,3.9884975 0 0 1 8.0115054,12.000003 3.9884984,3.9884975 0 0 1 12.000004,8.0115054 3.9884984,3.9884975 0 0 1 15.988502,12.000003 Z"/>
    <path d="M 12 10.5 A 1.5 1.5 0 0 0 10.5 12 A 1.5 1.5 0 0 0 12 13.5 A 1.5 1.5 0 0 0 13.5 12 A 1.5 1.5 0 0 0 13.130859 11.013672 A 0.60000002 0.60000002 0 0 1 13.205078 11.304688 A 0.60000002 0.60000002 0 0 1 12.605469 11.90625 A 0.60000002 0.60000002 0 0 1 12.005859 11.304688 A 0.60000002 0.60000002 0 0 1 12.605469 10.705078 A 0.60000002 0.60000002 0 0 1 12.830078 10.75 A 1.5 1.5 0 0 0 12 10.5 z "/>
    <path style="fill:none;stroke:#616161" d="M 11.941406 6.9980469 A 9.9419489 6.941947 0 0 0 2.4101562 11.998047 A 9.9440975 6.9440956 0 0 0 11.943359 16.998047 A 9.9440975 6.9440956 0 0 0 21.482422 11.990234 A 9.9419489 6.941947 0 0 0 11.941406 6.9980469 z "/>
    <path style="stroke:#616161" d="M 4.7138087,4.7138087 19.286191,19.285566"/>
  </g>
</svg>
