<?xml version="1.0" encoding="UTF-8" standalone="no"?>
<svg
   viewBox="0 0 512 512"
   version="1.1"
   id="svg1"
   xmlns="http://www.w3.org/2000/svg"
   xmlns:svg="http://www.w3.org/2000/svg">
  <defs
     id="defs1" />
  <!--!Font Awesome Free 6.7.2 by @fontawesome - https://fontawesome.com License - https://fontawesome.com/license/free Copyright 2025 Fonticons, Inc.-->
  <path
     d="m 256,0 c 17.7,0 32,14.3 32,32 V 66.7 C 368.4,80.1 431.9,143.6 445.3,224 H 480 c 17.7,0 32,14.3 32,32 0,17.7 -14.3,32 -32,32 H 445.3 C 431.9,368.4 368.4,431.9 288,445.3 V 480 c 0,17.7 -14.3,32 -32,32 -17.7,0 -32,-14.3 -32,-32 V 445.3 C 143.6,431.9 80.1,368.4 66.7,288 H 32 C 14.3,288 0,273.7 0,256 0,238.3 14.3,224 32,224 H 66.7 C 80.1,143.6 143.6,80.1 224,66.7 V 32 C 224,14.3 238.3,0 256,0 Z M 128,256 c 0,70.6925 57.30755,127.99994 128,127.99994 70.69245,0 128,-57.30744 128,-127.99994 0,-70.6925 -57.30755,-127.99994 -128,-127.99994 -70.69245,0 -128,57.30744 -128,127.99994 z"
     id="path1"
     style="fill:#616161;fill-opacity:1" />
</svg>
