<?xml version="1.0" encoding="UTF-8" standalone="no"?>
<svg
   class="jp-icon3"
   viewBox="0 0 512 512"
   version="1.1"
   id="svg1"
   xmlns="http://www.w3.org/2000/svg"
>
   <defs
      id="defs1" />
   <!--!Font
   Awesome Free 6.7.2 by @fontawesome - https://fontawesome.com License -
   https://fontawesome.com/license/free Copyright 2025 Fonticons, Inc.-->
   <path
      d="M 486.4,140.8 V 54.4 c 0,-15.93 -12.87,-28.8 -28.8,-28.8 h -86.4 c -15.93,0 -28.8,12.87 -28.8,28.8 H 169.6 c 0,-15.93 -12.87,-28.8 -28.8,-28.8 H 54.4 c -15.93,0 -28.8,12.87 -28.8,28.8 v 86.4 c 0,15.93 12.87,28.8 28.8,28.8 v 172.8 c -15.93,0 -28.8,12.87 -28.8,28.8 v 86.4 c 0,15.93 12.87,28.8 28.8,28.8 h 86.4 c 15.93,0 28.8,-12.87 28.8,-28.8 h 172.8 c 0,15.93 12.87,28.8 28.8,28.8 h 86.4 c 15.93,0 28.8,-12.87 28.8,-28.8 v -86.4 c 0,-15.93 -12.87,-28.8 -28.8,-28.8 V 169.6 c 15.93,0 28.8,-12.87 28.8,-28.8 z M 400,83.2 h 28.8 V 112 H 400 Z m -316.8,0 H 112 V 112 H 83.2 Z M 112,428.8 H 83.2 V 400 H 112 Z m 316.8,0 H 400 V 400 h 28.8 z M 400,342.4 h -28.8 c -15.93,0 -28.8,12.87 -28.8,28.8 V 400 H 169.6 v -28.8 c 0,-15.93 -12.87,-28.8 -28.8,-28.8 H 112 V 169.6 h 28.8 c 15.93,0 28.8,-12.87 28.8,-28.8 V 112 h 172.8 v 28.8 c 0,15.93 12.87,28.8 28.8,28.8 H 400 Z"
      id="path1"
      style="stroke-width:0.9"
      fill="#616161"
      class="jp-icon3"
   />
</svg>
