<svg height="16" viewBox="0 0 24 24" width="16" xmlns="http://www.w3.org/2000/svg">
  <g class="jp-icon3 jp-icon-selectable" fill="#616161">
    <path d="M 12,7.5117187 C 9.5269955,7.5117186 7.5117187,9.5269959 7.5117187,12 c 4e-7,2.473004 2.0152771,4.488281 4.4882813,4.488281 2.473004,0 4.488281,-2.015277 4.488281,-4.488281 0,-2.4730039 -2.015277,-4.488281 -4.488281,-4.4882813 z m 0,1.0000001 c 1.932565,10e-8 3.488281,1.5557172 3.488281,3.4882812 0,1.932564 -1.555716,3.488281 -3.488281,3.488281 C 10.067435,15.488281 8.511719,13.932564 8.5117188,12 8.5117187,10.067436 10.067435,8.5117187 12,8.5117188 Z"/>
    <path d="M 12 10.5 A 1.5 1.5 0 0 0 10.5 12 A 1.5 1.5 0 0 0 12 13.5 A 1.5 1.5 0 0 0 13.5 12 A 1.5 1.5 0 0 0 13.130859 11.013672 A 0.60000002 0.60000002 0 0 1 13.205078 11.304688 A 0.60000002 0.60000002 0 0 1 12.605469 11.90625 A 0.60000002 0.60000002 0 0 1 12.005859 11.304688 A 0.60000002 0.60000002 0 0 1 12.605469 10.705078 A 0.60000002 0.60000002 0 0 1 12.830078 10.75 A 1.5 1.5 0 0 0 12 10.5 z "/>
    <path d="M 11.941406,6.4980469 C 7.3733981,6.5024661 3.2961559,8.5768767 1.9492187,11.804688 l -0.080078,0.193359 0.080078,0.193359 c 1.3480417,3.227968 5.4258411,5.302394 9.9941403,5.306641 4.573757,-0.0034 8.655672,-2.083243 10,-5.316406 l 0.08008,-0.191407 -0.08008,-0.193359 C 20.590947,8.5700472 16.509943,6.4982838 11.941406,6.4980469 Z m 0,1 c 4.152317,2.153e-4 7.72176,1.9081199 8.947266,4.4941411 -1.219637,2.589986 -4.788912,4.502755 -8.945313,4.505859 -4.1514043,-0.0039 -7.7169499,-1.913838 -8.9394527,-4.5 1.2215174,-2.5858023 4.786394,-4.4959842 8.9374997,-4.5000001 z"/>
  </g>
</svg>
